<?xml version="1.0" encoding="UTF-8"?>
<svg version="1.1" xmlns="http://www.w3.org/2000/svg" width="99" height="87">
<path d="M0 0 C32.67 0 65.34 0 99 0 C99 28.71 99 57.42 99 87 C66.33 87 33.66 87 0 87 C0 58.29 0 29.58 0 0 Z " fill="#FDFEFE" transform="translate(0,0)"/>
<path d="M0 0 C0.68531804 11.63137014 -0.53559158 23.07342603 -8.3125 32.2890625 C-14.58335582 38.64701354 -21.36027355 42.51652477 -30.4140625 43.17578125 C-32.2769372 43.18565514 -34.13996734 43.10333515 -36 43 C-36 42.34 -36 41.68 -36 41 C-34.6015625 39.66015625 -34.6015625 39.66015625 -32.625 38.0625 C-24.47334311 31.11046638 -17.56149302 23.15611655 -12 14 C-12.7425 14.886875 -13.485 15.77375 -14.25 16.6875 C-21.44071309 25.0738186 -28.92866977 33.45506087 -37 41 C-37.66 41 -38.32 41 -39 41 C-41.85136546 34.5844277 -42.09145731 27.23511578 -40.34765625 20.46875 C-36.71125313 11.35433188 -29.70791802 6.01662525 -21 2 C-14.24186486 -0.78276153 -7.18539551 -0.17938574 0 0 Z " fill="#3EB64E" transform="translate(83,24)"/>
<path d="M0 0 C7.7025784 -0.58132667 14.82163524 0.93637139 21.15234375 5.578125 C25.7673397 9.91017194 28.78504173 14.38967806 29.171875 20.88671875 C29.18576795 23.59931768 29.13226816 26.29095207 29 29 C28.34 29 27.68 29 27 29 C25.73078387 27.37921697 24.53497379 25.7006787 23.375 24 C19.68941181 18.78212515 15.67447474 14.33880767 11 10 C13.19302783 12.78686435 15.43149502 15.51899868 17.76171875 18.19140625 C18.24060547 18.74376953 18.71949219 19.29613281 19.21289062 19.86523438 C20.20294688 21.00478257 21.19782184 22.14016056 22.19726562 23.27148438 C24.67676915 26.14797761 26.27470736 28.2760269 27 32 C15.34124872 32.62272262 15.34124872 32.62272262 10.5 30.375 C4.26141228 24.44834167 0.25275064 19.09896945 -0.1796875 10.375 C-0.18667148 6.91094427 -0.13125922 3.46135424 0 0 Z " fill="#40B750" transform="translate(12,35)"/>
<path d="M0 0 C0.33 0.66 0.66 1.32 1 2 C-4.21161332 9.46950574 -9.74729294 16.37744705 -16 23 C-16.60457031 23.64582031 -17.20914063 24.29164062 -17.83203125 24.95703125 C-19.17430306 26.35155695 -20.58040108 27.68427417 -22 29 C-22.66 29 -23.32 29 -24 29 C-24.33 29.66 -24.66 30.32 -25 31 C-25.66 30.34 -26.32 29.68 -27 29 C-26.5153125 28.5875 -26.030625 28.175 -25.53125 27.75 C-15.76272728 19.33404196 -7.80688171 10.21783047 0 0 Z " fill="#E3F4E6" transform="translate(71,36)"/>
<path d="M0 0 C7.69904433 3.29959043 13.61599776 11.07044807 18 18 C18 18.66 18 19.32 18 20 C18.66 20.33 19.32 20.66 20 21 C19.01 21 18.02 21 17 21 C15.4921875 19.3828125 15.4921875 19.3828125 13.875 17.125 C10.44983293 12.50687945 6.71881687 8.28868471 2.8203125 4.06640625 C1 2 1 2 0 0 Z " fill="#CAEBCE" transform="translate(21,44)"/>
<path d="M0 0 C0.33 0.66 0.66 1.32 1 2 C-1.64 5.63 -4.28 9.26 -7 13 C-7.99 12.67 -8.98 12.34 -10 12 C-9.44570313 11.38511719 -8.89140625 10.77023438 -8.3203125 10.13671875 C-7.59585938 9.32847656 -6.87140625 8.52023438 -6.125 7.6875 C-5.40570313 6.88699219 -4.68640625 6.08648437 -3.9453125 5.26171875 C-1.88394498 2.95810917 -1.88394498 2.95810917 0 0 Z " fill="#C9EACD" transform="translate(71,36)"/>
</svg>
