<?xml version="1.0" encoding="UTF-8"?>
<svg version="1.1" xmlns="http://www.w3.org/2000/svg" width="200" height="200">
<path d="M0 0 C1.32 0.33 2.64 0.66 4 1 C4.495 2.98 4.495 2.98 5 5 C6.32 5 7.64 5 9 5 C9.4846875 6.0415625 9.969375 7.083125 10.46875 8.15625 C13.89086185 15.48343304 17.35430001 22.78109716 21 30 C23.77795905 35.50143496 26.45614489 41.04022268 29.0625 46.625 C31.41295772 51.66080616 33.80779153 56.6632918 36.3125 61.625 C40.90671558 70.74000763 45.27725832 79.96194405 49.65869141 89.18066406 C50.91821671 91.82809731 52.18316762 94.47287061 53.44921875 97.1171875 C54.17477183 98.64048564 54.90005058 100.16391448 55.625 101.6875 C55.95556396 102.37561768 56.28612793 103.06373535 56.62670898 103.77270508 C58.0946665 106.87242485 59.16285109 109.65140438 60 113 C38.55 113 17.1 113 -5 113 C-5.495 109.04 -5.495 109.04 -6 105 C-6.61875 105.99 -7.2375 106.98 -7.875 108 C-8.57625 108.99 -9.2775 109.98 -10 111 C-10.66 111 -11.32 111 -12 111 C-12 111.66 -12 112.32 -12 113 C-26.19 113 -40.38 113 -55 113 C-55.33 112.01 -55.66 111.02 -56 110 C-55.34 110 -54.68 110 -54 110 C-53.75041534 109.17485901 -53.50083069 108.34971802 -53.24368286 107.49957275 C-51.81753517 103.48656608 -50.02461767 99.79974298 -48.10107422 96.00683594 C-47.71063934 95.22888672 -47.32020447 94.4509375 -46.91793823 93.64941406 C-46.07397568 91.96907169 -45.22816667 90.28965569 -44.38070297 88.61107635 C-43.04094412 85.95715077 -41.70624544 83.30073513 -40.37283325 80.64361572 C-37.54469707 75.01015499 -34.71028829 69.37986376 -31.875 63.75 C-28.58252562 57.21220149 -25.29261325 50.67314047 -22.00940323 44.1306839 C-20.69195776 41.50879442 -19.36973236 38.88935193 -18.04733276 36.2699585 C-17.24469917 34.67195228 -16.44228817 33.07383423 -15.64013672 31.47558594 C-15.26924927 30.74414368 -14.89836182 30.01270142 -14.51623535 29.25909424 C-12.64314928 25.79990073 -12.64314928 25.79990073 -12 22 C-11.34 22 -10.68 22 -10 22 C-9.75507812 21.18273437 -9.51015625 20.36546875 -9.2578125 19.5234375 C-7.77452388 15.36838676 -5.88199051 11.54678711 -3.875 7.625 C-3.50246094 6.88894531 -3.12992188 6.15289062 -2.74609375 5.39453125 C-1.8343878 3.59449642 -0.91770068 1.79698598 0 0 Z M0 5 C0 5.99 0 6.98 0 8 C0.66 8 1.32 8 2 8 C2.33 8.66 2.66 9.32 3 10 C2.67 8.35 2.34 6.7 2 5 C1.34 5 0.68 5 0 5 Z M6 7 C6 7.66 6 8.32 6 9 C5.01 9.33 4.02 9.66 3 10 C3 10.66 3 11.32 3 12 C4.32 11.34 5.64 10.68 7 10 C6.67 9.01 6.34 8.02 6 7 Z M-4 13 C-3 15 -3 15 -3 15 Z M-6 17 C-5 19 -5 19 -5 19 Z M-8 21 C-7 23 -7 23 -7 23 Z M-10 25 C-9 27 -9 27 -9 27 Z M-12 29 C-11 32 -11 32 -11 32 Z M18 31 C19 33 19 33 19 33 Z M-14 33 C-13 36 -13 36 -13 36 Z M20 35 C21 37 21 37 21 37 Z M-16 37 C-15 40 -15 40 -15 40 Z M22 39 C23 42 23 42 23 42 Z M-18 41 C-17 44 -17 44 -17 44 Z M24 43 C25 46 25 46 25 46 Z M-20 45 C-19 48 -19 48 -19 48 Z M25 46 C25.66 47.32 26.32 48.64 27 50 C26.67 48.68 26.34 47.36 26 46 C25.67 46 25.34 46 25 46 Z M-21 48 C-21.33 49.32 -21.66 50.64 -22 52 C-21.34 50.68 -20.68 49.36 -20 48 C-20.33 48 -20.66 48 -21 48 Z M-23 52 C-23 52.99 -23 53.98 -23 55 C-14.75 55 -6.5 55 2 55 C1.67 56.98 1.34 58.96 1 61 C0.9209869 63.45467356 0.8921953 65.91126356 0.90234375 68.3671875 C0.90446617 69.38656906 0.90446617 69.38656906 0.90663147 70.42654419 C0.91218482 72.57607612 0.92472831 74.72550008 0.9375 76.875 C0.94252104 78.34114432 0.94708289 79.80729029 0.95117188 81.2734375 C0.96213889 84.84899283 0.97937081 88.42448586 1 92 C1.33 92 1.66 92 2 92 C2.82637424 79.64865646 3.12350504 67.3779494 3 55 C4.98 55 6.96 55 9 55 C9 54.67 9 54.34 9 54 C8.24380371 53.97494385 7.48760742 53.9498877 6.70849609 53.92407227 C3.26384541 53.80763114 -0.18056408 53.68512338 -3.625 53.5625 C-4.81480469 53.52318359 -6.00460938 53.48386719 -7.23046875 53.44335938 C-8.38417969 53.40146484 -9.53789063 53.35957031 -10.7265625 53.31640625 C-11.78439941 53.27974854 -12.84223633 53.24309082 -13.93212891 53.20532227 C-17.00927273 52.99937941 -19.9686809 52.55819179 -23 52 Z M27 50 C27.33 51.65 27.66 53.3 28 55 C25.36 55 22.72 55 20 55 C20 55.33 20 55.66 20 56 C23.3 56 26.6 56 30 56 C29.34 54.02 28.68 52.04 28 50 C27.67 50 27.34 50 27 50 Z M30 56 C31 58 31 58 31 58 Z M-26 57 C-25 59 -25 59 -25 59 Z M5 57 C4.11532407 70.68088132 3.87338155 84.29209146 4 98 C6.64 97.67 9.28 97.34 12 97 C12.66 98.65 13.32 100.3 14 102 C14.66 102 15.32 102 16 102 C16.66 103.65 17.32 105.3 18 107 C28.89 107 39.78 107 51 107 C49.27502848 100.10011393 46.56710565 93.86517213 43.3125 87.5625 C39.61419069 80.29095337 36.11277343 72.93950092 32.6640625 65.546875 C32.11492187 64.37640625 31.56578125 63.2059375 31 62 C30.6596875 61.195625 30.319375 60.39125 29.96875 59.5625 C29.0157057 57.61627954 29.0157057 57.61627954 25.875 57.25 C18.95042073 56.6965485 11.94071658 56.9241912 5 57 Z M32 60 C33 62 33 62 33 62 Z M-28 61 C-27 63 -27 63 -27 63 Z M34 64 C35 66 35 66 35 66 Z M-30 65 C-29 67 -29 67 -29 67 Z M36 68 C37 70 37 70 37 70 Z M-32 69 C-31 71 -31 71 -31 71 Z M-34 73 C-33 75 -33 75 -33 75 Z M-36 77 C-35 79 -35 79 -35 79 Z M-38 81 C-37 83 -37 83 -37 83 Z M-40 85 C-39 88 -39 88 -39 88 Z M-42 89 C-41 92 -41 92 -41 92 Z M-44 93 C-43 96 -43 96 -43 96 Z M48 93 C49 95 49 95 49 95 Z M-46 97 C-45 100 -45 100 -45 100 Z M-6 97 C-6.33 97.99 -6.66 98.98 -7 100 C-6.34 100 -5.68 100 -5 100 C-4.67 99.01 -4.34 98.02 -4 97 C-4.66 97 -5.32 97 -6 97 Z M50 97 C51 99 51 99 51 99 Z M-3 99 C-3 99.66 -3 100.32 -3 101 C-2.34 101 -1.68 101 -1 101 C-1 100.34 -1 99.68 -1 99 C-1.66 99 -2.32 99 -3 99 Z M6 99 C10 100 10 100 10 100 Z M-8 100 C-7 102 -7 102 -7 102 Z M-48 101 C-47 104 -47 104 -47 104 Z M52 101 C53 103 53 103 53 103 Z M1 102 C1 103.98 1 105.96 1 108 C4.63 108 8.26 108 12 108 C11.67 107.01 11.34 106.02 11 105 C10.34 105 9.68 105 9 105 C9 104.01 9 103.02 9 102 C6.36 102 3.72 102 1 102 Z M-10 103 C-9 105 -9 105 -9 105 Z M-2 103 C-2 104.65 -2 106.3 -2 108 C-1.67 108 -1.34 108 -1 108 C-1 106.35 -1 104.7 -1 103 C-1.33 103 -1.66 103 -2 103 Z M-50 105 C-49 107 -49 107 -49 107 Z M14 105 C15 107 15 107 15 107 Z M16 108 C16 108.66 16 109.32 16 110 C24.9035633 111.03954991 33.73332057 111.11928731 42.6875 111.0625 C44.08268067 111.05747028 45.47786311 111.05291 46.87304688 111.04882812 C50.24874437 111.03714751 53.62434826 111.02076833 57 111 C56.505 110.01 56.505 110.01 56 109 C36.2 108.505 36.2 108.505 16 108 Z M-12 105 C-12.66 105.99 -13.32 106.98 -14 108 C-16.43920898 108.44824219 -16.43920898 108.44824219 -19.49609375 108.546875 C-21.17155273 108.60681641 -21.17155273 108.60681641 -22.88085938 108.66796875 C-24.64139648 108.70857422 -24.64139648 108.70857422 -26.4375 108.75 C-27.57638672 108.79253906 -28.71527344 108.83507812 -29.88867188 108.87890625 C-37.00614014 109.09840556 -43.92845127 108.83394703 -51 108 C-51.33 108.99 -51.66 109.98 -52 111 C-46.66154426 111.12368107 -41.32392376 111.21437609 -35.984375 111.2746582 C-34.16847201 111.299789 -32.35267004 111.33389961 -30.53710938 111.37719727 C-27.92552777 111.43791511 -25.31528406 111.46622281 -22.703125 111.48828125 C-21.48728729 111.52699089 -21.48728729 111.52699089 -20.24688721 111.56648254 C-16.13339913 111.56852529 -14.43182674 111.42954743 -11.45605469 108.46948242 C-10.97555664 107.65455322 -10.49505859 106.83962402 -10 106 C-10.66 105.67 -11.32 105.34 -12 105 Z " fill="#363435" transform="translate(100,15)"/>
<path d="M0 0 C7.26 0 14.52 0 22 0 C22.33 12.54 22.66 25.08 23 38 C20.69 38.66 18.38 39.32 16 40 C14.11440211 42.5931354 14.11440211 42.5931354 12.6875 45.625 C9.32239892 50.63017947 9.32239892 50.63017947 6.11083984 51.52832031 C0.72364032 52.10865123 -4.62959996 51.52427505 -10 51 C-11.42664368 50.90463612 -12.85374044 50.81575639 -14.28125 50.734375 C-17.52714372 50.53645465 -20.76142671 50.29157573 -24 50 C-22.3286852 44.2543357 -19.68091821 39.10758448 -16.9921875 33.7890625 C-16.50670441 32.82092621 -16.02122131 31.85278992 -15.52102661 30.85531616 C-13.97610983 27.77663915 -12.42564044 24.70079749 -10.875 21.625 C-9.82385068 19.53273696 -8.7730653 17.44029104 -7.72265625 15.34765625 C-5.15332405 10.22928674 -2.57649677 5.11479177 0 0 Z " fill="#C7383C" transform="translate(77,72)"/>
<path d="M0 0 C0.71844086 0.00054382 1.43688171 0.00108765 2.17709351 0.00164795 C22.4210538 0.07164684 40.93221875 4.06850014 60.125 10.375 C60.125 14.335 60.125 18.295 60.125 22.375 C57.63065062 23.62217469 56.53504318 23.24719177 53.8125 22.8125 C49.9242827 22.30696934 47.71145407 22.68725691 44.125 24.375 C42.64 23.88 42.64 23.88 41.125 23.375 C41.125 21.395 41.125 19.415 41.125 17.375 C39.54413906 16.90821035 37.96008407 16.4522415 36.375 16 C35.49328125 15.74476563 34.6115625 15.48953125 33.703125 15.2265625 C23.66548558 12.83769198 13.95377993 12.05376453 3.66992188 12.11425781 C1.49581248 12.12502073 -0.67747729 12.11427645 -2.8515625 12.1015625 C-10.40534478 12.0942469 -17.51656317 12.53068591 -24.875 14.375 C-25.73432129 14.53838867 -26.59364258 14.70177734 -27.47900391 14.87011719 C-29.96565266 15.31238487 -29.96565266 15.31238487 -32.5 16.5 C-34.875 17.375 -34.875 17.375 -37.875 16.375 C-37.545 18.685 -37.215 20.995 -36.875 23.375 C-38.87454746 23.41754356 -40.87541636 23.41580783 -42.875 23.375 C-43.205 23.045 -43.535 22.715 -43.875 22.375 C-45.87445939 22.32850094 -47.8753559 22.33727087 -49.875 22.375 C-51.8746441 22.41272913 -53.87554061 22.42149906 -55.875 22.375 C-56.875 21.375 -56.875 21.375 -56.97265625 19.08984375 C-56.96105469 18.17332031 -56.94945312 17.25679687 -56.9375 16.3125 C-56.92847656 15.39339844 -56.91945312 14.47429687 -56.91015625 13.52734375 C-56.89855469 12.81707031 -56.88695312 12.10679687 -56.875 11.375 C-38.81655505 3.02980953 -19.80852124 -0.05684596 0 0 Z " fill="#AEAEAE" transform="translate(99.875,128.625)"/>
<path d="M0 0 C2 2 2 2 2 5 C2.61875 4.34 3.2375 3.68 3.875 3 C6 1 6 1 8 1 C9.76199109 4.90935739 11.52172052 8.81972321 13.27954102 12.73095703 C13.87530496 14.05576688 14.47164004 15.38032007 15.06860352 16.70458984 C18.84535547 25.08396045 22.52039386 33.49142323 26 42 C15.8605888 42.07167069 5.75645591 41.85536416 -4.375 41.5 C-5.80468024 41.45160782 -7.23436774 41.40342976 -8.6640625 41.35546875 C-12.10946183 41.23943423 -15.55475529 41.1205483 -19 41 C-17.6657388 36.74420801 -16.04722172 32.80055945 -14.1015625 28.7890625 C-13.53953125 27.62632813 -12.9775 26.46359375 -12.3984375 25.265625 C-11.80733245 24.05206347 -11.21618635 22.83852193 -10.625 21.625 C-10.04134435 20.41942682 -9.45800844 19.2136988 -8.875 18.0078125 C-5.95673699 11.98473086 -3.01090192 5.97730775 0 0 Z " fill="#5DA45D" transform="translate(100,26)"/>
<path d="M0 0 C2.6875 0.3125 2.6875 0.3125 5 1 C5 1.99 5 2.98 5 4 C6.32 4.33 7.64 4.66 9 5 C9.66 3.68 10.32 2.36 11 1 C12.32 1.33 13.64 1.66 15 2 C15 2.66 15 3.32 15 4 C14.67 4.33 14.34 4.66 14 5 C14.185625 5.5775 14.37125 6.155 14.5625 6.75 C15 9 15 9 14.0625 11.3125 C12.74185606 14.65295232 12.86040731 17.44038629 13 21 C13.763125 21.0825 14.52625 21.165 15.3125 21.25 C18.58481639 22.16320457 19.15979125 23.23968688 21 26 C21.99 26.66 22.98 27.32 24 28 C22.68 28.33 21.36 28.66 20 29 C19.67 30.32 19.34 31.64 19 33 C16.6875 33.1875 16.6875 33.1875 14 33 C13.56171875 32.49855469 13.1234375 31.99710938 12.671875 31.48046875 C11.05221311 29.73402891 11.05221311 29.73402891 8.44140625 29.8828125 C7.49136719 29.96273437 6.54132813 30.04265625 5.5625 30.125 C2.5859375 30.21484375 2.5859375 30.21484375 0 30 C-2.3125 27.6875 -2.3125 27.6875 -4 25 C-5.010625 24.505 -6.02125 24.01 -7.0625 23.5 C-10.47883686 21.75548756 -11.6388791 20.57294235 -13 17 C-11.83117435 12.98505087 -9.87346296 10.42151851 -7.0625 7.375 C-6.37285156 6.61960937 -5.68320313 5.86421875 -4.97265625 5.0859375 C-4.32167969 4.39757812 -3.67070313 3.70921875 -3 3 C-2.47664063 2.40832031 -1.95328125 1.81664063 -1.4140625 1.20703125 C-0.94742188 0.80871094 -0.48078125 0.41039063 0 0 Z M1 2 C1 2.66 1 3.32 1 4 C1.66 3.67 2.32 3.34 3 3 C2.34 2.67 1.68 2.34 1 2 Z M-6 12 C-6.33 12.99 -6.66 13.98 -7 15 C-6.01 14.67 -5.02 14.34 -4 14 C-4.66 13.34 -5.32 12.68 -6 12 Z " fill="#826A56" transform="translate(119,84)"/>
<path d="M0 0 C1.60016968 -0.00338379 1.60016968 -0.00338379 3.23266602 -0.00683594 C4.35600342 -0.00200195 5.47934082 0.00283203 6.63671875 0.0078125 C7.79937256 0.01264648 8.96202637 0.01748047 10.15991211 0.02246094 C30.43335888 0.16292686 48.04777822 2.92890061 67.32421875 9.1328125 C67.32421875 13.0928125 67.32421875 17.0528125 67.32421875 21.1328125 C64.82986937 22.37998719 63.73426193 22.00500427 61.01171875 21.5703125 C57.12350145 21.06478184 54.91067282 21.44506941 51.32421875 23.1328125 C50.33421875 22.8028125 49.34421875 22.4728125 48.32421875 22.1328125 C48.32421875 20.1528125 48.32421875 18.1728125 48.32421875 16.1328125 C47.61394531 15.89046875 46.90367187 15.648125 46.171875 15.3984375 C45.25277344 15.06328125 44.33367187 14.728125 43.38671875 14.3828125 C42.47019531 14.05796875 41.55367187 13.733125 40.609375 13.3984375 C38.32421875 12.1328125 38.32421875 12.1328125 37.6328125 10.1796875 C37.48005859 9.16648438 37.48005859 9.16648438 37.32421875 8.1328125 C35.31692795 5.1218763 34.48537651 4.50264753 31.32421875 3.1328125 C29.3720544 5.08497685 28.4759523 6.66481203 27.32421875 9.1328125 C26.66421875 8.4728125 26.00421875 7.8128125 25.32421875 7.1328125 C25.32421875 5.8128125 25.32421875 4.4928125 25.32421875 3.1328125 C24.33421875 3.4628125 23.34421875 3.7928125 22.32421875 4.1328125 C21.66421875 3.8028125 21.00421875 3.4728125 20.32421875 3.1328125 C19.99421875 4.4528125 19.66421875 5.7728125 19.32421875 7.1328125 C19.32421875 5.8128125 19.32421875 4.4928125 19.32421875 3.1328125 C18.66421875 3.1328125 18.00421875 3.1328125 17.32421875 3.1328125 C17.32421875 4.4528125 17.32421875 5.7728125 17.32421875 7.1328125 C11.57421875 8.2578125 11.57421875 8.2578125 9.32421875 7.1328125 C9.32421875 7.7928125 9.32421875 8.4528125 9.32421875 9.1328125 C5.69421875 9.1328125 2.06421875 9.1328125 -1.67578125 9.1328125 C-0.67578125 7.1328125 -0.67578125 7.1328125 1.32421875 6.1328125 C0.33421875 5.1428125 -0.65578125 4.1528125 -1.67578125 3.1328125 C-2.00578125 5.1128125 -2.33578125 7.0928125 -2.67578125 9.1328125 C-3.33578125 8.8028125 -3.99578125 8.4728125 -4.67578125 8.1328125 C-4.67578125 6.8128125 -4.67578125 5.4928125 -4.67578125 4.1328125 C-6.98578125 3.8028125 -9.29578125 3.4728125 -11.67578125 3.1328125 C-11.67578125 2.4728125 -11.67578125 1.8128125 -11.67578125 1.1328125 C-7.73553403 0.40040291 -4.00598267 0.0047581 0 0 Z " fill="#939393" transform="translate(92.67578125,129.8671875)"/>
<path d="M0 0 C0.99 0 1.98 0 3 0 C3.66 0.99 4.32 1.98 5 3 C5.99 2.67 6.98 2.34 8 2 C8.33 1.34 8.66 0.68 9 0 C10.32 0 11.64 0 13 0 C13 1.32 13 2.64 13 4 C13.99 4 14.98 4 16 4 C16.33 6.31 16.66 8.62 17 11 C17.33 11 17.66 11 18 11 C18.33 8.69 18.66 6.38 19 4 C22.96 4 26.92 4 31 4 C31.33 4.66 31.66 5.32 32 6 C32.66 4.02 33.32 2.04 34 0 C34.99 0.33 35.98 0.66 37 1 C37.6875 3.0625 37.6875 3.0625 38 5 C38.33 4.67 38.66 4.34 39 4 C41.9375 3.8125 41.9375 3.8125 45 4 C45.66 4.66 46.32 5.32 47 6 C47.33 4.02 47.66 2.04 48 0 C48.99 0 49.98 0 51 0 C51 4.95 51 9.9 51 15 C50.01 15 49.02 15 48 15 C47.505 12.03 47.505 12.03 47 9 C45.02 8.67 43.04 8.34 41 8 C41 8.99 41 9.98 41 11 C42.98 11 44.96 11 47 11 C46.67 12.32 46.34 13.64 46 15 C40.33333333 15 34.66666667 15 29 15 C29 12.36 29 9.72 29 7 C28.01 7.495 28.01 7.495 27 8 C26.59270772 10.32156597 26.25561323 12.6568787 26 15 C25.01 15 24.02 15 23 15 C22.67 14.34 22.34 13.68 22 13 C21.34 13.66 20.68 14.32 20 15 C17.5 15.125 17.5 15.125 15 15 C14.34 15 13.68 15 13 15 C11.68 15 10.36 15 9 15 C8.67 13.02 8.34 11.04 8 9 C6.68 9 5.36 9 4 9 C3.67 10.98 3.34 12.96 3 15 C2.01 15 1.02 15 0 15 C0 10.05 0 5.1 0 0 Z M12 5 C12 6.98 12 8.96 12 11 C12.33 11 12.66 11 13 11 C13 9.02 13 7.04 13 5 C12.67 5 12.34 5 12 5 Z " fill="#363435" transform="translate(7,161)"/>
<path d="M0 0 C0.99 0 1.98 0 3 0 C3.33 3.63 3.66 7.26 4 11 C4.99 11.33 5.98 11.66 7 12 C7 8.04 7 4.08 7 0 C8.32 0 9.64 0 11 0 C11 1.32 11 2.64 11 4 C13.64 4 16.28 4 19 4 C19.33 4.66 19.66 5.32 20 6 C20.66 4.02 21.32 2.04 22 0 C22.99 0.33 23.98 0.66 25 1 C25 2.98 25 4.96 25 7 C25.33 6.34 25.66 5.68 26 5 C26.66 5 27.32 5 28 5 C28.66 3.35 29.32 1.7 30 0 C30.99 0 31.98 0 33 0 C33.144375 0.804375 33.28875 1.60875 33.4375 2.4375 C33.74135249 4.92103706 33.74135249 4.92103706 35 6 C35.33 5.34 35.66 4.68 36 4 C42.0546875 3.8046875 42.0546875 3.8046875 44 4 C46 6 46 6 46.1953125 8.1640625 C46.17210937 8.97617188 46.14890625 9.78828125 46.125 10.625 C46.10695312 11.44226563 46.08890625 12.25953125 46.0703125 13.1015625 C46.04710937 13.72804687 46.02390625 14.35453125 46 15 C45.01 15 44.02 15 43 15 C42.87625 13.865625 42.7525 12.73125 42.625 11.5625 C42.41875 10.386875 42.2125 9.21125 42 8 C41.34 7.67 40.68 7.34 40 7 C40 9.64 40 12.28 40 15 C39.195625 14.814375 38.39125 14.62875 37.5625 14.4375 C36.716875 14.293125 35.87125 14.14875 35 14 C34.67 14.33 34.34 14.66 34 15 C30.5625 15.1875 30.5625 15.1875 27 15 C26.34 14.34 25.68 13.68 25 13 C24.67 13.66 24.34 14.32 24 15 C21.69 15 19.38 15 17 15 C17 12.36 17 9.72 17 7 C16.01 7.495 16.01 7.495 15 8 C14.59270772 10.32156597 14.25561323 12.6568787 14 15 C13.01 15 12.02 15 11 15 C10.67 14.34 10.34 13.68 10 13 C9.67 13.66 9.34 14.32 9 15 C5.625 15.125 5.625 15.125 2 15 C0 13 0 13 -0.1953125 9.9609375 C-0.17210937 8.77757812 -0.14890625 7.59421875 -0.125 6.375 C-0.10695312 5.18648437 -0.08890625 3.99796875 -0.0703125 2.7734375 C-0.04710937 1.85820312 -0.02390625 0.94296875 0 0 Z M29 7 C28.67 8.32 28.34 9.64 28 11 C29.32 11.33 30.64 11.66 32 12 C32.33 11.01 32.66 10.02 33 9 C32.67 8.34 32.34 7.68 32 7 C31.01 7 30.02 7 29 7 Z " fill="#373536" transform="translate(151,161)"/>
<path d="M0 0 C2 2 2 2 2 5 C2.928125 4.01 2.928125 4.01 3.875 3 C6 1 6 1 8 1 C12.23632385 9.03501094 12.23632385 9.03501094 11.25 13.0625 C10.8375 13.701875 10.425 14.34125 10 15 C10.99 15.66 11.98 16.32 13 17 C12.01 17 11.02 17 10 17 C11.68807908 21.23084903 11.68807908 21.23084903 15 24 C15 24.66 15 25.32 15 26 C12.57498366 25.52846905 10.18892739 25.05397926 7.8125 24.375 C5.91096507 23.78653641 5.91096507 23.78653641 4 25 C3.67 25.99 3.34 26.98 3 28 C4.3303125 28.433125 4.3303125 28.433125 5.6875 28.875 C8.50382424 29.83148748 11.25083156 30.86798946 14 32 C13.67 32.99 13.34 33.98 13 35 C10.50290113 36.11938915 9.39054977 36.14506134 6.8125 35.1875 C5 34 5 34 4 32 C4 32.99 4 33.98 4 35 C3.34 35 2.68 35 2 35 C1.34 34.34 0.68 33.68 0 33 C-2.57061311 32.35232207 -2.57061311 32.35232207 -5 32 C-4 29 -4 29 -1.9375 27.8125 C-1.298125 27.544375 -0.65875 27.27625 0 27 C-0.99 26.67 -1.98 26.34 -3 26 C-3.33333333 24.66666667 -3.66666667 23.33333333 -4 22 C-4.99 21.67 -5.98 21.34 -7 21 C-7 20.67 -7 20.34 -7 20 C-4.69 20 -2.38 20 0 20 C0 19.34 0 18.68 0 18 C-0.99 17.67 -1.98 17.34 -3 17 C-2.01 17 -1.02 17 0 17 C0 16.34 0 15.68 0 15 C-0.99 15.33 -1.98 15.66 -3 16 C-3 14.68 -3 13.36 -3 12 C-3.061875 10.865625 -3.12375 9.73125 -3.1875 8.5625 C-2.98720687 4.75693045 -2.20976771 3.0384306 0 0 Z " fill="#528955" transform="translate(100,26)"/>
<path d="M0 0 C1 3 1 3 1 6 C0.34 6 -0.32 6 -1 6 C-0.34 6.66 0.32 7.32 1 8 C1.66 8 2.32 8 3 8 C3 9.65 3 11.3 3 13 C1.02 13.33 -0.96 13.66 -3 14 C-2.2575 14.680625 -2.2575 14.680625 -1.5 15.375 C0 17 0 17 0 19 C1.32 19.33 2.64 19.66 4 20 C2.7934375 20.680625 2.7934375 20.680625 1.5625 21.375 C-1.08856572 22.74725665 -1.08856572 22.74725665 -2 25 C1.62885324 25.15149298 1.62885324 25.15149298 5 24 C5.33 26.31 5.66 28.62 6 31 C1.43253488 33.25169623 -2.82277227 33.42423979 -7.8125 33.625 C-8.60076172 33.66367188 -9.38902344 33.70234375 -10.20117188 33.7421875 C-12.1337538 33.83588844 -14.06684376 33.91900779 -16 34 C-14.64185098 29.65857684 -12.97289819 25.63810126 -10.99609375 21.54296875 C-10.71274673 20.9545369 -10.42939972 20.36610504 -10.13746643 19.75984192 C-9.54331991 18.52794488 -8.94742584 17.29688928 -8.34985352 16.06665039 C-7.43259357 14.17739436 -6.52156932 12.28522421 -5.61132812 10.39257812 C-1.13643973 1.13643973 -1.13643973 1.13643973 0 0 Z " fill="#5CA25C" transform="translate(97,33)"/>
<path d="M0 0 C0.5775 0.309375 1.155 0.61875 1.75 0.9375 C3.84294184 1.92583364 5.74535275 2.5168613 8 3 C7.67 5.31 7.34 7.62 7 10 C8.98 10.33 10.96 10.66 13 11 C12.67 11.66 12.34 12.32 12 13 C10.88625 12.566875 10.88625 12.566875 9.75 12.125 C-1.99036498 8.6028905 -13.62321242 8.75473059 -25.75 8.875 C-27.5260366 8.88505426 -29.30207873 8.89417577 -31.078125 8.90234375 C-35.38555589 8.9241534 -39.6927152 8.95854701 -44 9 C-44.33 8.34 -44.66 7.68 -45 7 C-45.99 7 -46.98 7 -48 7 C-47.67 5.35 -47.34 3.7 -47 2 C-46.01 2 -45.02 2 -44 2 C-43.67 3.32 -43.34 4.64 -43 6 C-43 4.68 -43 3.36 -43 2 C-39.535 1.505 -39.535 1.505 -36 1 C-35.34 2.98 -34.68 4.96 -34 7 C-33.67 5.02 -33.34 3.04 -33 1 C-32.01 1.33 -31.02 1.66 -30 2 C-29.3125 4.0625 -29.3125 4.0625 -29 6 C-26.69 6.33 -24.38 6.66 -22 7 C-22 6.34 -22 5.68 -22 5 C-19.525 5.495 -19.525 5.495 -17 6 C-17 4.35 -17 2.7 -17 1 C-16.67 2.32 -16.34 3.64 -16 5 C-15.34 5 -14.68 5 -14 5 C-14 3.68 -14 2.36 -14 1 C-10.7 1 -7.4 1 -4 1 C-3.505 1.99 -3.505 1.99 -3 3 C-2.01 2.01 -1.02 1.02 0 0 Z " fill="#919091" transform="translate(124,132)"/>
<path d="M0 0 C1.09957031 -0.00128906 2.19914062 -0.00257813 3.33203125 -0.00390625 C4.46769531 -0.00003906 5.60335937 0.00382813 6.7734375 0.0078125 C7.88589844 0.00394531 8.99835938 0.00007812 10.14453125 -0.00390625 C17.52668664 0.00468764 24.80303418 0.4021005 32.1484375 1.1328125 C31.67792969 1.74640625 31.20742187 2.36 30.72265625 2.9921875 C29.26191228 4.97850933 28.18387204 6.9026458 27.1484375 9.1328125 C26.4884375 8.4728125 25.8284375 7.8128125 25.1484375 7.1328125 C25.1484375 5.8128125 25.1484375 4.4928125 25.1484375 3.1328125 C24.1584375 3.4628125 23.1684375 3.7928125 22.1484375 4.1328125 C21.4884375 3.8028125 20.8284375 3.4728125 20.1484375 3.1328125 C19.8184375 4.4528125 19.4884375 5.7728125 19.1484375 7.1328125 C19.1484375 5.8128125 19.1484375 4.4928125 19.1484375 3.1328125 C18.4884375 3.1328125 17.8284375 3.1328125 17.1484375 3.1328125 C17.1484375 4.4528125 17.1484375 5.7728125 17.1484375 7.1328125 C11.3984375 8.2578125 11.3984375 8.2578125 9.1484375 7.1328125 C9.1484375 7.7928125 9.1484375 8.4528125 9.1484375 9.1328125 C5.5184375 9.1328125 1.8884375 9.1328125 -1.8515625 9.1328125 C-0.8515625 7.1328125 -0.8515625 7.1328125 1.1484375 6.1328125 C0.1584375 5.1428125 -0.8315625 4.1528125 -1.8515625 3.1328125 C-2.1815625 5.1128125 -2.5115625 7.0928125 -2.8515625 9.1328125 C-3.5115625 8.8028125 -4.1715625 8.4728125 -4.8515625 8.1328125 C-4.8515625 6.8128125 -4.8515625 5.4928125 -4.8515625 4.1328125 C-7.1615625 3.8028125 -9.4715625 3.4728125 -11.8515625 3.1328125 C-11.8515625 2.4728125 -11.8515625 1.8128125 -11.8515625 1.1328125 C-7.85141745 0.38616819 -4.06733468 0.00467433 0 0 Z " fill="#F3F3F3" transform="translate(92.8515625,129.8671875)"/>
<path d="M0 0 C2.3125 0.0625 2.3125 0.0625 5 1 C6.8125 4.5625 6.8125 4.5625 8 8 C6.02 9.32 4.04 10.64 2 12 C4.98646769 10.00902154 7.59687262 9.05875074 11 8 C12.32 9.32 13.64 10.64 15 12 C14.278125 12.20625 13.55625 12.4125 12.8125 12.625 C8.19948898 14.88024983 5.78552555 17.90317882 4.01953125 22.6171875 C3.28054298 25.06660401 2.604252 27.51421536 2 30 C-3.15324385 19.6935123 -3.15324385 19.6935123 -3.1875 13.5 C-3.20876953 11.75203125 -3.20876953 11.75203125 -3.23046875 9.96875 C-3 7 -3 7 -1 5 C-0.35232207 2.42938689 -0.35232207 2.42938689 0 0 Z " fill="#C3C2A3" transform="translate(74,80)"/>
<path d="M0 0 C0.99 0 1.98 0 3 0 C3.33 1.98 3.66 3.96 4 6 C4.66 5.34 5.32 4.68 6 4 C8.9375 3.625 8.9375 3.625 12 4 C13.9375 5.6875 13.9375 5.6875 15 8 C14.74303831 10.69809776 14.20824654 12.58350693 13 15 C6.47692308 15.36923077 6.47692308 15.36923077 4.0625 13.5 C3.711875 13.005 3.36125 12.51 3 12 C1.68 13.32 0.36 14.64 -1 16 C-6.54449895 14.67414156 -6.54449895 14.67414156 -8.5625 11.6875 C-9 9 -9 9 -8 6.1875 C-6 4 -6 4 -2.8125 3.6875 C-1.884375 3.790625 -0.95625 3.89375 0 4 C0 2.68 0 1.36 0 0 Z M-4 7 C-4.33 8.65 -4.66 10.3 -5 12 C-3.35 11.67 -1.7 11.34 0 11 C-0.66 9.68 -1.32 8.36 -2 7 C-2.66 7 -3.32 7 -4 7 Z M7 11 C11 12 11 12 11 12 Z " fill="#353435" transform="translate(101,161)"/>
<path d="M0 0 C2.75 0.25 2.75 0.25 5 1 C5 1.99 5 2.98 5 4 C6.32 4.33 7.64 4.66 9 5 C9.66 3.68 10.32 2.36 11 1 C12.32 1.33 13.64 1.66 15 2 C15 2.66 15 3.32 15 4 C14.67 4.33 14.34 4.66 14 5 C14.17402344 5.58265625 14.34804687 6.1653125 14.52734375 6.765625 C15.37783992 10.78615234 13.38654046 14.22860995 12 18 C8.7 17.67 5.4 17.34 2 17 C2 16.67 2 16.34 2 16 C4.64 16 7.28 16 10 16 C9.67 15.01 9.34 14.02 9 13 C9.99 13 10.98 13 12 13 C12 11.68 12 10.36 12 9 C9.03 8.505 9.03 8.505 6 8 C6 8.66 6 9.32 6 10 C2.7 10 -0.6 10 -4 10 C-4 10.66 -4 11.32 -4 12 C-3.34 12.33 -2.68 12.66 -2 13 C-7.625 15.125 -7.625 15.125 -11 14 C-11.33 14.99 -11.66 15.98 -12 17 C-12.33 16.34 -12.66 15.68 -13 15 C-11.58611621 13.24775086 -10.16877217 11.49829345 -8.75 9.75 C-7.96109375 8.77546875 -7.1721875 7.8009375 -6.359375 6.796875 C-2.32686981 2.0166205 -2.32686981 2.0166205 0 0 Z M1 2 C1 2.66 1 3.32 1 4 C1.66 3.67 2.32 3.34 3 3 C2.34 2.67 1.68 2.34 1 2 Z " fill="#483F3B" transform="translate(119,84)"/>
<path d="M0 0 C0.598125 0.226875 1.19625 0.45375 1.8125 0.6875 C1.1525 2.3375 0.4925 3.9875 -0.1875 5.6875 C1.79741642 5.42073796 1.79741642 5.42073796 3.8125 4.6875 C4.1425 3.6975 4.4725 2.7075 4.8125 1.6875 C9.09036748 2.18110009 11.90817131 2.73533565 15.8125 4.6875 C15.8125 7.6575 15.8125 10.6275 15.8125 13.6875 C14.843125 13.48125 13.87375 13.275 12.875 13.0625 C8.28477255 12.37584712 4.23123542 13.47510321 -0.1875 14.6875 C-0.1875 13.0375 -0.1875 11.3875 -0.1875 9.6875 C-2.4975 8.6975 -4.8075 7.7075 -7.1875 6.6875 C-6.5275 6.3575 -5.8675 6.0275 -5.1875 5.6875 C-5.1875 4.6975 -5.1875 3.7075 -5.1875 2.6875 C-3.50238638 0.32834093 -2.94924297 -0.42132042 0 0 Z " fill="#7F7E7F" transform="translate(143.1875,136.3125)"/>
<path d="M0 0 C-1.3125 1.5 -1.3125 1.5 -3 3 C-3.99 3 -4.98 3 -6 3 C-6 4.32 -6 5.64 -6 7 C-5.0925 6.79375 -4.185 6.5875 -3.25 6.375 C0 6 0 6 2.3125 6.5 C4.98387573 8.87455621 4.7461778 11.57340025 5 15 C3.00045254 15.04254356 0.99958364 15.04080783 -1 15 C-1.33 14.67 -1.66 14.34 -2 14 C-3.99945939 13.95350094 -6.0003559 13.96227087 -8 14 C-9.9996441 14.03772913 -12.00054061 14.04649906 -14 14 C-15 13 -15 13 -15.09765625 10.71484375 C-15.08605469 9.79832031 -15.07445312 8.88179687 -15.0625 7.9375 C-15.05347656 7.01839844 -15.04445312 6.09929687 -15.03515625 5.15234375 C-15.02355469 4.44207031 -15.01195312 3.73179687 -15 3 C-10.54461196 0.50063598 -4.97938511 -2.48969256 0 0 Z " fill="#787777" transform="translate(58,137)"/>
<path d="M0 0 C1.32 1.65 2.64 3.3 4 5 C2.87548273 7.9719385 1.77706209 10.33440687 0 13 C-0.63292383 15.11280345 -0.63292383 15.11280345 -1 17 C-1.66 17 -2.32 17 -3 17 C-3 17.66 -3 18.32 -3 19 C-6.32534757 20.10844919 -8.62182575 19.84454356 -12 19 C-13.35362694 12.72409326 -13.35362694 12.72409326 -11.6875 9.3125 C-11.130625 8.549375 -10.57375 7.78625 -10 7 C-9.31903578 5.67391178 -8.64669414 4.34313399 -8 3 C-7.4225 3.350625 -6.845 3.70125 -6.25 4.0625 C-3.64198224 5.14917407 -2.60582371 4.93065133 0 4 C0 2.68 0 1.36 0 0 Z " fill="#C7C846" transform="translate(91,94)"/>
<path d="M0 0 C0.99 0 1.98 0 3 0 C3 3.96 3 7.92 3 12 C5.31 12 7.62 12 10 12 C10 10.02 10 8.04 10 6 C10.66 6 11.32 6 12 6 C12 5.34 12 4.68 12 4 C14.31 4 16.62 4 19 4 C19 4.66 19 5.32 19 6 C19.66 6 20.32 6 21 6 C21 8.97 21 11.94 21 15 C14 15 7 15 0 15 C0 10.05 0 5.1 0 0 Z M14 7 C13.67 8.32 13.34 9.64 13 11 C15.475 11.495 15.475 11.495 18 12 C17.67 10.35 17.34 8.7 17 7 C16.01 7 15.02 7 14 7 Z " fill="#373636" transform="translate(123,161)"/>
<path d="M0 0 C2.22000388 0.01852061 4.439594 0.02050705 6.65966797 0.02026367 C18.40617992 0.06062546 18.40617992 0.06062546 23.19482422 1.20581055 C23.19482422 1.53581055 23.19482422 1.86581055 23.19482422 2.20581055 C9.66482422 2.20581055 -3.86517578 2.20581055 -17.80517578 2.20581055 C-17.80517578 2.86581055 -17.80517578 3.52581055 -17.80517578 4.20581055 C-16.81517578 4.20581055 -15.82517578 4.20581055 -14.80517578 4.20581055 C-14.80517578 5.85581055 -14.80517578 7.50581055 -14.80517578 9.20581055 C-15.13517578 7.88581055 -15.46517578 6.56581055 -15.80517578 5.20581055 C-16.13517578 6.85581055 -16.46517578 8.50581055 -16.80517578 10.20581055 C-17.46517578 9.87581055 -18.12517578 9.54581055 -18.80517578 9.20581055 C-18.80517578 7.88581055 -18.80517578 6.56581055 -18.80517578 5.20581055 C-19.79517578 5.53581055 -20.78517578 5.86581055 -21.80517578 6.20581055 C-21.80517578 7.19581055 -21.80517578 8.18581055 -21.80517578 9.20581055 C-20.81517578 9.53581055 -19.82517578 9.86581055 -18.80517578 10.20581055 C-18.80517578 10.86581055 -18.80517578 11.52581055 -18.80517578 12.20581055 C-21.44517578 12.20581055 -24.08517578 12.20581055 -26.80517578 12.20581055 C-25.81517578 11.87581055 -24.82517578 11.54581055 -23.80517578 11.20581055 C-24.46517578 9.55581055 -25.12517578 7.90581055 -25.80517578 6.20581055 C-26.46517578 6.20581055 -27.12517578 6.20581055 -27.80517578 6.20581055 C-28.13517578 7.52581055 -28.46517578 8.84581055 -28.80517578 10.20581055 C-29.13517578 9.54581055 -29.46517578 8.88581055 -29.80517578 8.20581055 C-32.33250813 7.55025936 -32.33250813 7.55025936 -34.80517578 7.20581055 C-34.47517578 6.54581055 -34.14517578 5.88581055 -33.80517578 5.20581055 C-30.74267578 4.58081055 -30.74267578 4.58081055 -27.80517578 4.20581055 C-27.80517578 3.54581055 -27.80517578 2.88581055 -27.80517578 2.20581055 C-18.46382116 0.41369197 -9.46910571 -0.08179506 0 0 Z " fill="#ADACAD" transform="translate(98.80517578125,128.794189453125)"/>
<path d="M0 0 C0.99 0.33 1.98 0.66 3 1 C3.33 2.65 3.66 4.3 4 6 C4.66 5.34 5.32 4.68 6 4 C8.9375 3.625 8.9375 3.625 12 4 C13.9375 5.6875 13.9375 5.6875 15 8 C14.74303831 10.69809776 14.20824654 12.58350693 13 15 C9.625 15.125 9.625 15.125 6 15 C5.34 14.34 4.68 13.68 4 13 C3.67 13.66 3.34 14.32 3 15 C2.01 15 1.02 15 0 15 C-0.19448477 12.87562788 -0.38038289 10.75046809 -0.5625 8.625 C-0.66691406 7.44164062 -0.77132812 6.25828125 -0.87890625 5.0390625 C-1 2 -1 2 0 0 Z M7 7 C7 8.65 7 10.3 7 12 C8.32 12 9.64 12 11 12 C11.33 11.01 11.66 10.02 12 9 C11.34 8.34 10.68 7.68 10 7 C9.01 7 8.02 7 7 7 Z " fill="#373536" transform="translate(71,161)"/>
<path d="M0 0 C0.99 0 1.98 0 3 0 C3.66 0.66 4.32 1.32 5 2 C5.99 2.33 6.98 2.66 8 3 C8.309375 3.969375 8.61875 4.93875 8.9375 5.9375 C9.68468021 9.10504047 9.68468021 9.10504047 12.125 10.375 C12.74375 10.58125 13.3625 10.7875 14 11 C14 11.66 14 12.32 14 13 C14.66 12.67 15.32 12.34 16 12 C16 11.34 16 10.68 16 10 C16.66 10 17.32 10 18 10 C18.33 9.34 18.66 8.68 19 8 C19.66 8.33 20.32 8.66 21 9 C21 8.34 21 7.68 21 7 C21.66 7 22.32 7 23 7 C23 8.32 23 9.64 23 11 C22.34 11 21.68 11 21 11 C21.33 12.32 21.66 13.64 22 15 C18.31448022 15.64178879 14.74603187 16.13592278 11 16 C8.6875 13.75 8.6875 13.75 7 11 C5.453125 10.2884375 5.453125 10.2884375 3.875 9.5625 C1 8 1 8 -0.4375 4.9375 C-1 2 -1 2 0 0 Z " fill="#ADADAD" transform="translate(108,98)"/>
<path d="M0 0 C0.99 0.66 1.98 1.32 3 2 C2.34 2 1.68 2 1 2 C1.66 3.98 2.32 5.96 3 8 C2.67 8.33 2.34 8.66 2 9 C2.66 10.32 3.32 11.64 4 13 C3.01 13.495 3.01 13.495 2 14 C1.59270772 16.32156597 1.25561323 18.6568787 1 21 C2.3303125 21.433125 2.3303125 21.433125 3.6875 21.875 C6.50382424 22.83148748 9.25083156 23.86798946 12 25 C11.67 25.99 11.34 26.98 11 28 C8.50290113 29.11938915 7.39054977 29.14506134 4.8125 28.1875 C3 27 3 27 2 25 C2 25.99 2 26.98 2 28 C1.34 28 0.68 28 0 28 C-0.66 27.34 -1.32 26.68 -2 26 C-4.57061311 25.35232207 -4.57061311 25.35232207 -7 25 C-6 22 -6 22 -3.9375 20.8125 C-3.298125 20.544375 -2.65875 20.27625 -2 20 C-2.33 19.34 -2.66 18.68 -3 18 C-2.34 18 -1.68 18 -1 18 C-1.20625 17.484375 -1.4125 16.96875 -1.625 16.4375 C-2.15887026 12.96734329 -1.07676761 10.29364209 0 7 C-0.66 7 -1.32 7 -2 7 C-1.34 4.69 -0.68 2.38 0 0 Z " fill="#536648" transform="translate(102,33)"/>
<path d="M0 0 C6.93 0.33 13.86 0.66 21 1 C20.67 12.88 20.34 24.76 20 37 C19.34 37 18.68 37 18 37 C18 25.78 18 14.56 18 3 C11.07 3 4.14 3 -3 3 C-2.01 2.67 -1.02 2.34 0 2 C0 1.34 0 0.68 0 0 Z " fill="#4F3637" transform="translate(81,69)"/>
<path d="M0 0 C0.33 1.65 0.66 3.3 1 5 C1.33 3.02 1.66 1.04 2 -1 C2.99 -0.67 3.98 -0.34 5 0 C5.6875 2.0625 5.6875 2.0625 6 4 C8.31 4.33 10.62 4.66 13 5 C13.33 4.34 13.66 3.68 14 3 C14 3.66 14 4.32 14 5 C16.31 5.33 18.62 5.66 21 6 C17.70265354 7.09911549 15.27041255 7.1139456 11.80078125 7.09765625 C10.59228516 7.09443359 9.38378906 7.09121094 8.13867188 7.08789062 C6.87603516 7.07951172 5.61339844 7.07113281 4.3125 7.0625 C2.40114258 7.05573242 2.40114258 7.05573242 0.45117188 7.04882812 C-2.69926564 7.03702873 -5.84960949 7.02056597 -9 7 C-9.33 6.34 -9.66 5.68 -10 5 C-10.99 5 -11.98 5 -13 5 C-12.67 3.35 -12.34 1.7 -12 0 C-11.01 0 -10.02 0 -9 0 C-8.67 1.32 -8.34 2.64 -8 4 C-8 2.68 -8 1.36 -8 0 C-4.71023192 -1.09658936 -3.28696233 -0.79953138 0 0 Z " fill="#767576" transform="translate(89,134)"/>
<path d="M0 0 C0.66 0.33 1.32 0.66 2 1 C-3.28 11.89 -8.56 22.78 -14 34 C-3.77 34 6.46 34 17 34 C17 34.33 17 34.66 17 35 C12.96178295 35.16833857 8.92333583 35.32881721 4.88452148 35.48217773 C3.51204126 35.53538216 2.13964095 35.59069309 0.76733398 35.64819336 C-1.2108742 35.73070839 -3.18942414 35.80489585 -5.16796875 35.87890625 C-6.95110474 35.94960327 -6.95110474 35.94960327 -8.77026367 36.02172852 C-11.68371968 36.00212782 -14.17975522 35.69052984 -17 35 C-14.37536532 28.399323 -11.66811878 22.04040099 -8.015625 15.9375 C-6.98174778 13.96518038 -6.44648459 12.17418584 -6 10 C-5.34 10 -4.68 10 -4 10 C-3.896875 9.278125 -3.79375 8.55625 -3.6875 7.8125 C-2.94013068 4.75508007 -1.71954811 2.61670365 0 0 Z " fill="#3A413A" transform="translate(95,33)"/>
<path d="M0 0 C2.31 0 4.62 0 7 0 C7 0.66 7 1.32 7 2 C7.66 2 8.32 2 9 2 C9.125 5.375 9.125 5.375 9 9 C7 11 7 11 3.875 11.125 C2.92625 11.08375 1.9775 11.0425 1 11 C1 12.32 1 13.64 1 15 C0.01 15 -0.98 15 -2 15 C-2 10.71 -2 6.42 -2 2 C-1.34 2 -0.68 2 0 2 C0 1.34 0 0.68 0 0 Z M2 3 C1.67 4.32 1.34 5.64 1 7 C3.475 7.495 3.475 7.495 6 8 C5.67 6.35 5.34 4.7 5 3 C4.01 3 3.02 3 2 3 Z " fill="#373536" transform="translate(61,165)"/>
<path d="M0 0 C1.3303125 0.4021875 1.3303125 0.4021875 2.6875 0.8125 C2.6875 2.4625 2.6875 4.1125 2.6875 5.8125 C2.048125 5.93625 1.40875 6.06 0.75 6.1875 C0.069375 6.39375 -0.61125 6.6 -1.3125 6.8125 C-1.6425 7.4725 -1.9725 8.1325 -2.3125 8.8125 C-2.6425 7.8225 -2.9725 6.8325 -3.3125 5.8125 C-3.9725 5.8125 -4.6325 5.8125 -5.3125 5.8125 C-7.6277272 11.04692671 -9.3125 15.01904029 -9.3125 20.8125 C-9.9725 20.8125 -10.6325 20.8125 -11.3125 20.8125 C-11.77796212 13.20995206 -10.78680476 8.02240887 -6 1.8125 C-3.3125 -0.1875 -3.3125 -0.1875 0 0 Z " fill="#29292C" transform="translate(88.3125,92.1875)"/>
<path d="M0 0 C0.763125 0.78375 1.52625 1.5675 2.3125 2.375 C4.90891805 5.07257717 4.90891805 5.07257717 8 7 C6.68 7.33 5.36 7.66 4 8 C3.67 9.32 3.34 10.64 3 12 C-1.46632783 12.36213469 -1.46632783 12.36213469 -3.75 10.8125 C-5.28838998 8.58183452 -5.64005447 6.6635969 -6 4 C-5.01 4 -4.02 4 -3 4 C-2.67 3.34 -2.34 2.68 -2 2 C-1.34 1.34 -0.68 0.68 0 0 Z " fill="#4F4E4F" transform="translate(135,105)"/>
<path d="M0 0 C0.598125 0.226875 1.19625 0.45375 1.8125 0.6875 C1.1525 2.3375 0.4925 3.9875 -0.1875 5.6875 C1.79741642 5.42073796 1.79741642 5.42073796 3.8125 4.6875 C4.1425 3.6975 4.4725 2.7075 4.8125 1.6875 C11.4375 2.4375 11.4375 2.4375 14.8125 4.6875 C11.0625 7.6875 11.0625 7.6875 8.8125 7.6875 C8.8125 6.3675 8.8125 5.0475 8.8125 3.6875 C8.1525 3.6875 7.4925 3.6875 6.8125 3.6875 C6.4825 4.6775 6.1525 5.6675 5.8125 6.6875 C4.8225 6.6875 3.8325 6.6875 2.8125 6.6875 C2.8125 7.3475 2.8125 8.0075 2.8125 8.6875 C1.3324159 8.57387738 -0.14660074 8.44627092 -1.625 8.3125 C-2.44871094 8.24289063 -3.27242187 8.17328125 -4.12109375 8.1015625 C-4.80300781 7.96492187 -5.48492187 7.82828125 -6.1875 7.6875 C-6.5175 7.0275 -6.8475 6.3675 -7.1875 5.6875 C-6.5275 5.6875 -5.8675 5.6875 -5.1875 5.6875 C-5.1875 4.6975 -5.1875 3.7075 -5.1875 2.6875 C-3.50238638 0.32834093 -2.94924297 -0.42132042 0 0 Z " fill="#F1F0F1" transform="translate(143.1875,136.3125)"/>
<path d="M0 0 C0.33 0.66 0.66 1.32 1 2 C0.360625 2.9075 -0.27875 3.815 -0.9375 4.75 C-2.61428953 7.39221381 -3.53689998 8.9898499 -4 12 C-4.66 12 -5.32 12 -6 12 C-6 12.66 -6 13.32 -6 14 C-7.32 14.33 -8.64 14.66 -10 15 C-11.85776765 11.86501708 -12.20140476 9.62528568 -12 6 C-11.67 6.99 -11.34 7.98 -11 9 C-10.01 9 -9.02 9 -8 9 C-8 8.34 -8 7.68 -8 7 C-8.66 7 -9.32 7 -10 7 C-9.67 6.34 -9.34 5.68 -9 5 C-7.865625 4.690625 -6.73125 4.38125 -5.5625 4.0625 C-1.76783002 3.34378643 -1.76783002 3.34378643 0 0 Z " fill="#A2924D" transform="translate(94,99)"/>
<path d="M0 0 C0.66 0 1.32 0 2 0 C2.3403125 1.2065625 2.3403125 1.2065625 2.6875 2.4375 C3.120625 3.283125 3.55375 4.12875 4 5 C6.54775306 5.89386164 6.54775306 5.89386164 9 6 C5.71009876 7.89801995 2.72279213 8.3921972 -1 9 C-2.68375165 9.62225605 -4.35767228 10.27544365 -6 11 C-6 9.68 -6 8.36 -6 7 C-6.30404678 5.32774271 -6.63128912 3.65919896 -7 2 C-6.01 1.67 -5.02 1.34 -4 1 C-3.01 1.66 -2.02 2.32 -1 3 C-0.67 2.01 -0.34 1.02 0 0 Z " fill="#686667" transform="translate(71,135)"/>
<path d="M0 0 C3.96 0 7.92 0 12 0 C12 0.33 12 0.66 12 1 C10.35 1.33 8.7 1.66 7 2 C9.64 2.33 12.28 2.66 15 3 C15 3.66 15 4.32 15 5 C13.35 5.33 11.7 5.66 10 6 C10 6.66 10 7.32 10 8 C11.32 8.33 12.64 8.66 14 9 C12.02 9 10.04 9 8 9 C8 8.34 8 7.68 8 7 C7.195625 6.7525 6.39125 6.505 5.5625 6.25 C4.716875 5.8375 3.87125 5.425 3 5 C2.3125 2.9375 2.3125 2.9375 2 1 C1.34 0.67 0.68 0.34 0 0 Z " fill="#5A4A42" transform="translate(114,102)"/>
<path d="M0 0 C2 2 2 2 2 5 C2.61875 4.34 3.2375 3.68 3.875 3 C6 1 6 1 8 1 C11 7.625 11 7.625 11 11 C9.68 11.33 8.36 11.66 7 12 C7 10.68 7 9.36 7 8 C6.01 8.495 6.01 8.495 5 9 C1.9375 7.75 1.9375 7.75 -1 6 C-1.33 5.01 -1.66 4.02 -2 3 C-1.34 2.01 -0.68 1.02 0 0 Z " fill="#5DA65E" transform="translate(100,26)"/>
<path d="M0 0 C0.66 0 1.32 0 2 0 C2 1.32 2 2.64 2 4 C1.34 4 0.68 4 0 4 C0.33 5.32 0.66 6.64 1 8 C-2.68651822 8.64196266 -6.25331341 9.15094565 -10 9 C-12.6875 6.5625 -12.6875 6.5625 -14 4 C-13.34 3.67 -12.68 3.34 -12 3 C-12 3.66 -12 4.32 -12 5 C-10.35 4.67 -8.7 4.34 -7 4 C-7 4.66 -7 5.32 -7 6 C-6.34 5.67 -5.68 5.34 -5 5 C-5 4.34 -5 3.68 -5 3 C-4.34 3 -3.68 3 -3 3 C-2.67 2.34 -2.34 1.68 -2 1 C-1.34 1.33 -0.68 1.66 0 2 C0 1.34 0 0.68 0 0 Z " fill="#979797" transform="translate(129,105)"/>
<path d="M0 0 C2.3125 0.0625 2.3125 0.0625 5 1 C6.8125 4.5625 6.8125 4.5625 8 8 C6.576875 8.928125 6.576875 8.928125 5.125 9.875 C2.05554891 11.81970969 2.05554891 11.81970969 0 14 C-0.66 13.67 -1.32 13.34 -2 13 C-0.125 8.125 -0.125 8.125 1 7 C0.649375 6.401875 0.29875 5.80375 -0.0625 5.1875 C-1 3 -1 3 0 0 Z " fill="#C1C1A1" transform="translate(74,80)"/>
<path d="M0 0 C1 3 1 3 1 6 C0.34 6 -0.32 6 -1 6 C-0.34 6.66 0.32 7.32 1 8 C1.66 8 2.32 8 3 8 C3 9.65 3 11.3 3 13 C1.72125 13.12375 0.4425 13.2475 -0.875 13.375 C-4.34790936 13.69042399 -4.34790936 13.69042399 -7 16 C-6.40165275 11.85701333 -4.99335715 8.81805623 -2.9375 5.1875 C-2.11572266 3.72376953 -2.11572266 3.72376953 -1.27734375 2.23046875 C-0.85582031 1.49441406 -0.43429688 0.75835937 0 0 Z " fill="#5EA85F" transform="translate(97,33)"/>
<path d="M0 0 C0.66 0.33 1.32 0.66 2 1 C2 1.66 2 2.32 2 3 C1.67 3.33 1.34 3.66 1 4 C1.17402344 4.58265625 1.34804687 5.1653125 1.52734375 5.765625 C2.37783992 9.78615234 0.38654046 13.22860995 -1 17 C-4.3 16.67 -7.6 16.34 -11 16 C-11 15.67 -11 15.34 -11 15 C-8.36 15 -5.72 15 -3 15 C-3.33 14.01 -3.66 13.02 -4 12 C-3.01 12 -2.02 12 -1 12 C-1 10.68 -1 9.36 -1 8 C-2.32 7.67 -3.64 7.34 -5 7 C-4.34 6.67 -3.68 6.34 -3 6 C-2.34 6.33 -1.68 6.66 -1 7 C-1 6.34 -1 5.68 -1 5 C-1.66 4.67 -2.32 4.34 -3 4 C-2.01 2.68 -1.02 1.36 0 0 Z " fill="#52433C" transform="translate(132,85)"/>
<path d="M0 0 C0.66 0.33 1.32 0.66 2 1 C2.33 1.99 2.66 2.98 3 4 C3.99 3.67 4.98 3.34 6 3 C5.34 4.65 4.68 6.3 4 8 C3.01 8 2.02 8 1 8 C1 9.32 1 10.64 1 12 C0.01 11.67 -0.98 11.34 -2 11 C-2.33 10.01 -2.66 9.02 -3 8 C-2.67 7.67 -2.34 7.34 -2 7 C-2.33 7 -2.66 7 -3 7 C-3 5.35 -3 3.7 -3 2 C-2.01 2 -1.02 2 0 2 C0 1.34 0 0.68 0 0 Z " fill="#57935B" transform="translate(106,33)"/>
<path d="M0 0 C0.86625 0.4640625 0.86625 0.4640625 1.75 0.9375 C3.84294184 1.92583364 5.74535275 2.5168613 8 3 C7.67 5.31 7.34 7.62 7 10 C9.97 10.495 9.97 10.495 13 11 C12.67 11.66 12.34 12.32 12 13 C11.154375 12.690625 10.30875 12.38125 9.4375 12.0625 C5.9502146 10.98461179 2.61822465 10.43418696 -1 10 C-1 9.67 -1 9.34 -1 9 C1.31 9 3.62 9 6 9 C5.67 8.34 5.34 7.68 5 7 C4.01 7 3.02 7 2 7 C1.34 6.67 0.68 6.34 0 6 C0.33 5.01 0.66 4.02 1 3 C0.01 2.67 -0.98 2.34 -2 2 C-1.34 1.34 -0.68 0.68 0 0 Z " fill="#565556" transform="translate(124,132)"/>
<path d="M0 0 C0.99 0.33 1.98 0.66 3 1 C3.6875 3.0625 3.6875 3.0625 4 5 C6.31 5.33 8.62 5.66 11 6 C11.33 5.34 11.66 4.68 12 4 C12 4.66 12 5.32 12 6 C14.31 6.33 16.62 6.66 19 7 C16.15090394 7.94969869 14.35751252 8.12869462 11.40234375 8.1328125 C10.07686523 8.13474609 10.07686523 8.13474609 8.72460938 8.13671875 C7.80486328 8.13285156 6.88511719 8.12898437 5.9375 8.125 C5.01388672 8.12886719 4.09027344 8.13273438 3.13867188 8.13671875 C2.25630859 8.13542969 1.37394531 8.13414062 0.46484375 8.1328125 C-0.343479 8.13168457 -1.15180176 8.13055664 -1.98461914 8.12939453 C-4 8 -4 8 -6 7 C-6 6.34 -6 5.68 -6 5 C-3.525 5.495 -3.525 5.495 -1 6 C-0.67 4.02 -0.34 2.04 0 0 Z " fill="#454445" transform="translate(91,133)"/>
<path d="M0 0 C0.66 0.33 1.32 0.66 2 1 C0.6875 2.5 0.6875 2.5 -1 4 C-1.99 4 -2.98 4 -4 4 C-4.66 5.32 -5.32 6.64 -6 8 C-6.33 7.01 -6.66 6.02 -7 5 C-7.99 5.33 -8.98 5.66 -10 6 C-9.72382467 7.94074861 -9.72382467 7.94074861 -9 10 C-8.01 10.66 -7.02 11.32 -6 12 C-7.98 12.33 -9.96 12.66 -12 13 C-12 10.36 -12 7.72 -12 5 C-10.04578965 4.13644222 -8.08648653 3.28440066 -6.125 2.4375 C-5.03445312 1.96183594 -3.94390625 1.48617187 -2.8203125 0.99609375 C-1.88960937 0.66738281 -0.95890625 0.33867187 0 0 Z " fill="#EDEDEE" transform="translate(56,136)"/>
<path d="M0 0 C6.93 0.495 6.93 0.495 14 1 C13.01 2.32 12.02 3.64 11 5 C10.30419733 6.31836295 9.62775567 7.64791086 9 9 C8.34 8.34 7.68 7.68 7 7 C7 5.68 7 4.36 7 3 C6.01 3.33 5.02 3.66 4 4 C3.34 3.67 2.68 3.34 2 3 C1.67 4.32 1.34 5.64 1 7 C1 5.68 1 4.36 1 3 C0.34 2.67 -0.32 2.34 -1 2 C-0.67 1.34 -0.34 0.68 0 0 Z " fill="#EAEAEA" transform="translate(111,130)"/>
<path d="M0 0 C2 1 2 1 4 4 C6.05003955 5.19232613 6.05003955 5.19232613 8 6 C4.98968256 6.93423645 4.13349732 7.04449911 1 6 C-1.63804589 6.39397335 -1.63804589 6.39397335 -4 7 C-4.33 5.35 -4.66 3.7 -5 2 C-2.625 0.9375 -2.625 0.9375 0 0 Z " fill="#7C7C7C" transform="translate(56,138)"/>
<path d="M0 0 C0.66 0 1.32 0 2 0 C2 0.99 2 1.98 2 3 C3.32 3.33 4.64 3.66 6 4 C6.66 2.68 7.32 1.36 8 0 C8.66 0.33 9.32 0.66 10 1 C9.01 2.485 9.01 2.485 8 4 C8.33 4.99 8.66 5.98 9 7 C6.69 7.33 4.38 7.66 2 8 C2 7.34 2 6.68 2 6 C-0.31 6 -2.62 6 -5 6 C-5 5.67 -5 5.34 -5 5 C-3.35 4.67 -1.7 4.34 0 4 C0 2.68 0 1.36 0 0 Z " fill="#5D4F45" transform="translate(122,85)"/>
<path d="M0 0 C0.99 0.66 1.98 1.32 3 2 C2.34 2 1.68 2 1 2 C1.66 3.98 2.32 5.96 3 8 C2.67 8.33 2.34 8.66 2 9 C2.66 10.32 3.32 11.64 4 13 C3.01 13.66 2.02 14.32 1 15 C0.34 15.99 -0.32 16.98 -1 18 C-2.60080151 13.99799622 -1.29279692 10.95443764 0 7 C-0.66 7 -1.32 7 -2 7 C-1.34 4.69 -0.68 2.38 0 0 Z " fill="#585D47" transform="translate(102,33)"/>
<path d="M0 0 C1.32 0 2.64 0 4 0 C4.33 1.32 4.66 2.64 5 4 C5.33 3.34 5.66 2.68 6 2 C6.66 2 7.32 2 8 2 C8.33 3.32 8.66 4.64 9 6 C5.04 6 1.08 6 -3 6 C-2.01 5.34 -1.02 4.68 0 4 C0 2.68 0 1.36 0 0 Z " fill="#B4B4B4" transform="translate(121,135)"/>
<path d="M0 0 C1.65 0 3.3 0 5 0 C5 1.32 5 2.64 5 4 C4.01 4.495 4.01 4.495 3 5 C3 5.66 3 6.32 3 7 C0.36 6.67 -2.28 6.34 -5 6 C-5 5.01 -5 4.02 -5 3 C-3.35 3 -1.7 3 0 3 C0 2.01 0 1.02 0 0 Z " fill="#685246" transform="translate(126,93)"/>
<path d="M0 0 C-0.66 2.97 -1.32 5.94 -2 9 C-2.66 8.67 -3.32 8.34 -4 8 C-4 6.68 -4 5.36 -4 4 C-6.31 3.67 -8.62 3.34 -11 3 C-11 2.34 -11 1.68 -11 1 C-7.27569643 0.30710631 -3.78916254 -0.11144596 0 0 Z " fill="#F4F4F4" transform="translate(92,130)"/>
<path d="M0 0 C1.98 0.66 3.96 1.32 6 2 C6 2.66 6 3.32 6 4 C6.66 4 7.32 4 8 4 C7 7 7 7 5 8 C5 6.68 5 5.36 5 4 C1.04 4 -2.92 4 -7 4 C-6.67 3.34 -6.34 2.68 -6 2 C-4.02 2 -2.04 2 0 2 C0 1.34 0 0.68 0 0 Z " fill="#776253" transform="translate(126,101)"/>
<path d="M0 0 C0.99 0.33 1.98 0.66 3 1 C3 2.65 3 4.3 3 6 C2.360625 6.12375 1.72125 6.2475 1.0625 6.375 C0.0415625 6.684375 0.0415625 6.684375 -1 7 C-1.33 7.66 -1.66 8.32 -2 9 C-2.66 7.02 -3.32 5.04 -4 3 C-2.1875 1.4375 -2.1875 1.4375 0 0 Z " fill="#222023" transform="translate(88,92)"/>
<path d="M0 0 C0 0.66 0 1.32 0 2 C-0.66 2 -1.32 2 -2 2 C-2.69159401 3.84725052 -2.69159401 3.84725052 -3 6 C-2.01 7.485 -2.01 7.485 -1 9 C-1.875 11.6875 -1.875 11.6875 -3 14 C-3.66 14 -4.32 14 -5 14 C-5 9.71 -5 5.42 -5 1 C-3 0 -3 0 0 0 Z " fill="#8D7E71" transform="translate(76,86)"/>
<path d="M0 0 C0.33 1.32 0.66 2.64 1 4 C1.66 4 2.32 4 3 4 C3 2.68 3 1.36 3 0 C3.66 0 4.32 0 5 0 C5.33 1.32 5.66 2.64 6 4 C6.66 3.67 7.32 3.34 8 3 C8.33 3.99 8.66 4.98 9 6 C4.71 6 0.42 6 -4 6 C-3.67 5.34 -3.34 4.68 -3 4 C-2.01 4.33 -1.02 4.66 0 5 C0 3.35 0 1.7 0 0 Z " fill="#A0A0A0" transform="translate(107,133)"/>
<path d="M0 0 C0.99 0.33 1.98 0.66 3 1 C3.21278058 5.46839215 2.59138085 8.82262526 1 13 C-1.60585556 9.09121666 -1.22321871 5.53878034 -1 1 C-0.67 0.67 -0.34 0.34 0 0 Z " fill="#AAA98E" transform="translate(75,97)"/>
<path d="M0 0 C0.33 0 0.66 0 1 0 C0.5317879 4.77576339 -0.24331998 8.04476345 -3 12 C-3.66 11.67 -4.32 11.34 -5 11 C-4.67 10.34 -4.34 9.68 -4 9 C-4.99 9.33 -5.98 9.66 -7 10 C-5.5834979 6.5767866 -3.93172851 5.17515341 -1 3 C-0.67 2.01 -0.34 1.02 0 0 Z " fill="#312F30" transform="translate(67,87)"/>
<path d="M0 0 C0.99 0.33 1.98 0.66 3 1 C3.6875 3.0625 3.6875 3.0625 4 5 C5.32 4.67 6.64 4.34 8 4 C6.625 6.5 6.625 6.5 5 9 C4.34 9 3.68 9 3 9 C2.7525 8.38125 2.505 7.7625 2.25 7.125 C0.79371361 4.64931313 -0.37812506 4.04874998 -3 3 C-2.01 3 -1.02 3 0 3 C0 2.01 0 1.02 0 0 Z " fill="#3A403A" transform="translate(99,22)"/>
<path d="M0 0 C0.33 0 0.66 0 1 0 C1.19573608 1.43640171 1.38127816 2.87419504 1.5625 4.3125 C1.66691406 5.11300781 1.77132812 5.91351563 1.87890625 6.73828125 C2 9 2 9 1 12 C0.01 12 -0.98 12 -2 12 C-3.34899329 5.74557657 -3.34899329 5.74557657 -1.625 2.0625 C-1.08875 1.381875 -0.5525 0.70125 0 0 Z " fill="#B8B849" transform="translate(81,101)"/>
<path d="M0 0 C0.928125 0.165 1.85625 0.33 2.8125 0.5 C5.95621353 1.07748388 5.95621353 1.07748388 9 1 C9.33 1.99 9.66 2.98 10 4 C7.69 3.67 5.38 3.34 3 3 C3 3.66 3 4.32 3 5 C2.01 5 1.02 5 0 5 C0 3.35 0 1.7 0 0 Z " fill="#3B403B" transform="translate(93,60)"/>
<path d="M0 0 C0.66 0.33 1.32 0.66 2 1 C1.67 1.99 1.34 2.98 1 4 C-0.43410368 4.24954005 -1.87260072 4.47392642 -3.3125 4.6875 C-4.11300781 4.81511719 -4.91351563 4.94273438 -5.73828125 5.07421875 C-8 5 -8 5 -9.79296875 3.51953125 C-10.19128906 3.01808594 -10.58960937 2.51664062 -11 2 C-8.47946405 0.73973202 -7.1457902 1.08125555 -4.375 1.4375 C-3.14910156 1.59025391 -3.14910156 1.59025391 -1.8984375 1.74609375 C-0.95871094 1.87177734 -0.95871094 1.87177734 0 2 C0 1.34 0 0.68 0 0 Z " fill="#957459" transform="translate(125,92)"/>
<path d="M0 0 C0 1.98 0 3.96 0 6 C-2.31 5.34 -4.62 4.68 -7 4 C-7 3.34 -7 2.68 -7 2 C-2.25 0 -2.25 0 0 0 Z " fill="#D8D8D9" transform="translate(62,145)"/>
<path d="M0 0 C1.34386088 0.28797019 2.6757713 0.63215869 4 1 C5.66519519 1.34060811 7.33157466 1.67558396 9 2 C9 2.33 9 2.66 9 3 C2.4 3 -4.2 3 -11 3 C-11 2.67 -11 2.34 -11 2 C-10.28972656 1.93941406 -9.57945313 1.87882812 -8.84765625 1.81640625 C-7.46900391 1.69072266 -7.46900391 1.69072266 -6.0625 1.5625 C-5.14597656 1.48128906 -4.22945313 1.40007812 -3.28515625 1.31640625 C-1.03840268 1.23955024 -1.03840268 1.23955024 0 0 Z " fill="#62B362" transform="translate(99,64)"/>
<path d="M0 0 C6.625 0.75 6.625 0.75 10 3 C6.25 6 6.25 6 4 6 C4 4.68 4 3.36 4 2 C2.68 2.33 1.36 2.66 0 3 C0 2.01 0 1.02 0 0 Z " fill="#F3F3F3" transform="translate(148,138)"/>
<path d="M0 0 C2.475 0.495 2.475 0.495 5 1 C4.67 2.65 4.34 4.3 4 6 C2.68 6 1.36 6 0 6 C0 4.02 0 2.04 0 0 Z " fill="#777677" transform="translate(96,132)"/>
<path d="M0 0 C0.33 0.66 0.66 1.32 1 2 C-0.0625 4.5625 -0.0625 4.5625 -2 7 C-7.09090909 8.45454545 -7.09090909 8.45454545 -10 7 C-9.67 6.34 -9.34 5.68 -9 5 C-7.865625 4.690625 -6.73125 4.38125 -5.5625 4.0625 C-1.76783002 3.34378643 -1.76783002 3.34378643 0 0 Z " fill="#728462" transform="translate(94,99)"/>
<path d="M0 0 C4.455 0.99 4.455 0.99 9 2 C5.71299843 3.64350079 3.52069985 4.41321669 0 5 C0 3.35 0 1.7 0 0 Z " fill="#E9E9EA" transform="translate(143,146)"/>
<path d="M0 0 C0 2.97 0 5.94 0 9 C-1.32 8.34 -2.64 7.68 -4 7 C-3.67 6.34 -3.34 5.68 -3 5 C-3.66 4.67 -4.32 4.34 -5 4 C-1.125 0 -1.125 0 0 0 Z " fill="#F4F4F4" transform="translate(159,141)"/>
<path d="M0 0 C0.99 0 1.98 0 3 0 C3.66 1.65 4.32 3.3 5 5 C3.68 5.33 2.36 5.66 1 6 C0.34 4.35 -0.32 2.7 -1 1 C-0.67 0.67 -0.34 0.34 0 0 Z " fill="#7E7E7E" transform="translate(46,141)"/>
<path d="M0 0 C0.33 1.98 0.66 3.96 1 6 C0.34 6 -0.32 6 -1 6 C-1.66 5.34 -2.32 4.68 -3 4 C-5.57061311 3.35232207 -5.57061311 3.35232207 -8 3 C-8 2.34 -8 1.68 -8 1 C-5.23735711 0.40267181 -2.83967231 0 0 0 Z " fill="#3C3E3A" transform="translate(103,55)"/>
<path d="M0 0 C2.31834293 2.21754541 3.56981609 4.13963219 5 7 C4.29875 6.855625 3.5975 6.71125 2.875 6.5625 C-0.07556141 5.98521625 -3.03270151 5.48304859 -6 5 C-5.67 4.34 -5.34 3.68 -5 3 C-3.35 3 -1.7 3 0 3 C0 2.01 0 1.02 0 0 Z " fill="#4C754E" transform="translate(110,45)"/>
<path d="M0 0 C0.99 0 1.98 0 3 0 C3.33 1.98 3.66 3.96 4 6 C5.32 6.33 6.64 6.66 8 7 C6.35 7 4.7 7 3 7 C2.67 6.34 2.34 5.68 2 5 C1.01 5 0.02 5 -1 5 C-0.67 3.35 -0.34 1.7 0 0 Z " fill="#525050" transform="translate(77,134)"/>
<path d="M0 0 C2.0625 0.4375 2.0625 0.4375 4 1 C3.67 2.65 3.34 4.3 3 6 C2.01 6 1.02 6 0 6 C-0.38218767 4.34385343 -0.71395102 2.67542976 -1 1 C-0.67 0.67 -0.34 0.34 0 0 Z " fill="#767576" transform="translate(65,136)"/>
<path d="M0 0 C1.08667969 0.19464844 2.17335938 0.38929687 3.29296875 0.58984375 C4.54013672 0.82380859 4.54013672 0.82380859 5.8125 1.0625 C2.54338005 3.04378482 0.39788418 3.23604387 -3.375 2.8125 C-4.25542969 2.72484375 -5.13585938 2.6371875 -6.04296875 2.546875 C-6.75066406 2.38703125 -7.45835938 2.2271875 -8.1875 2.0625 C-8.5175 1.4025 -8.8475 0.7425 -9.1875 0.0625 C-5.61369658 -1.12876781 -3.67866698 -0.6724445 0 0 Z " fill="#302F2F" transform="translate(58.1875,121.9375)"/>
<path d="M0 0 C0.66 0 1.32 0 2 0 C2 1.32 2 2.64 2 4 C1.34 4 0.68 4 0 4 C-0.33 4.66 -0.66 5.32 -1 6 C-2.32 5.67 -3.64 5.34 -5 5 C-5 4.34 -5 3.68 -5 3 C-4.34 3 -3.68 3 -3 3 C-2.67 2.34 -2.34 1.68 -2 1 C-1.34 1.33 -0.68 1.66 0 2 C0 1.34 0 0.68 0 0 Z " fill="#D4D1CE" transform="translate(129,105)"/>
<path d="M0 0 C1.32 0 2.64 0 4 0 C4.268125 0.598125 4.53625 1.19625 4.8125 1.8125 C5.98493467 3.97224808 7.19369282 5.35790256 9 7 C7.68 7 6.36 7 5 7 C5 6.34 5 5.68 5 5 C4.360625 4.731875 3.72125 4.46375 3.0625 4.1875 C1 3 1 3 0 0 Z " fill="#E6E6E6" transform="translate(112,103)"/>
<path d="M0 0 C1.32 0 2.64 0 4 0 C4 0.66 4 1.32 4 2 C4.66 2.33 5.32 2.66 6 3 C6.33 3.99 6.66 4.98 7 6 C4.0625 5.25 4.0625 5.25 1 4 C0.125 1.875 0.125 1.875 0 0 Z " fill="#B3B3B4" transform="translate(108,102)"/>
<path d="M0 0 C2.46800047 1.15173355 4.04783565 2.04783565 6 4 C2.625 4.625 2.625 4.625 -1 5 C-1.66 4.34 -2.32 3.68 -3 3 C-2.01 2.01 -1.02 1.02 0 0 Z " fill="#99907E" transform="translate(83,88)"/>
<path d="M0 0 C0.66 0.33 1.32 0.66 2 1 C2 1.66 2 2.32 2 3 C1.34 3 0.68 3 0 3 C0.33 3.99 0.66 4.98 1 6 C0.67 6.66 0.34 7.32 0 8 C-1.65 8 -3.3 8 -5 8 C-4.34 7.34 -3.68 6.68 -3 6 C-2.34 6.33 -1.68 6.66 -1 7 C-1 6.34 -1 5.68 -1 5 C-1.66 4.67 -2.32 4.34 -3 4 C-2.01 2.68 -1.02 1.36 0 0 Z " fill="#353334" transform="translate(132,85)"/>
<path d="M0 0 C1.65 0 3.3 0 5 0 C4.67 1.98 4.34 3.96 4 6 C2.68 5.67 1.36 5.34 0 5 C0 3.35 0 1.7 0 0 Z " fill="#656465" transform="translate(113,133)"/>
<path d="M0 0 C0.89203125 0.19464844 1.7840625 0.38929687 2.703125 0.58984375 C3.37859375 0.74582031 4.0540625 0.90179688 4.75 1.0625 C4.75 1.3925 4.75 1.7225 4.75 2.0625 C-0.2 2.0625 -5.15 2.0625 -10.25 2.0625 C-9.25 0.0625 -9.25 0.0625 -7.515625 -0.62109375 C-4.77432073 -1.00393107 -2.69585806 -0.60302088 0 0 Z " fill="#2A2A2A" transform="translate(111.25,123.9375)"/>
<path d="M0 0 C1.67542976 0.28604898 3.34385343 0.61781233 5 1 C5 1.99 5 2.98 5 4 C6.32 4.33 7.64 4.66 9 5 C7.02 5 5.04 5 3 5 C3 4.34 3 3.68 3 3 C1.68 2.34 0.36 1.68 -1 1 C-0.67 0.67 -0.34 0.34 0 0 Z " fill="#75706B" transform="translate(119,106)"/>
<path d="M0 0 C0.99 1.32 1.98 2.64 3 4 C0.44008376 6.01136276 -2.04590299 7.62845496 -5 9 C-4.67 7.68 -4.34 6.36 -4 5 C-2.68 4.67 -1.36 4.34 0 4 C0 2.68 0 1.36 0 0 Z " fill="#697D5D" transform="translate(91,94)"/>
<path d="M0 0 C0.99 0 1.98 0 3 0 C2.67 4.29 2.34 8.58 2 13 C1.67 13 1.34 13 1 13 C0.67 8.71 0.34 4.42 0 0 Z " fill="#313031" transform="translate(99,70)"/>
<path d="M0 0 C2.31 0.66 4.62 1.32 7 2 C6.401875 2.28875 5.80375 2.5775 5.1875 2.875 C2.80672208 4.04742026 2.80672208 4.04742026 0 6 C-0.38218767 4.34385343 -0.71395102 2.67542976 -1 1 C-0.67 0.67 -0.34 0.34 0 0 Z " fill="#686767" transform="translate(136,109)"/>
<path d="M0 0 C0.66 0.33 1.32 0.66 2 1 C-0.57404971 4.86107457 -2.61020259 4.94319692 -7 6 C-2.25 1.125 -2.25 1.125 0 0 Z " fill="#DEDF8E" transform="translate(92,99)"/>
<path d="M0 0 C1.10732122 3.32196365 0.85064093 4.68250039 0 8 C-0.33 8.66 -0.66 9.32 -1 10 C-1.99 10 -2.98 10 -4 10 C-2.8905928 6.51329166 -1.73662334 3.22515763 0 0 Z " fill="#B74044" transform="translate(73,80)"/>
<path d="M0 0 C0.7425 0.185625 1.485 0.37125 2.25 0.5625 C4.94990963 0.99203108 6.44631077 0.85122974 9 0 C8.67 0.99 8.34 1.98 8 3 C6.1875 3.8125 6.1875 3.8125 4 4 C1.75 3.0625 1.75 3.0625 0 2 C0 1.34 0 0.68 0 0 Z " fill="#393A39" transform="translate(105,58)"/>
<path d="M0 0 C0.33 0.66 0.66 1.32 1 2 C3.02463255 2.65213292 3.02463255 2.65213292 5 3 C0.25 6 0.25 6 -2 6 C-2 4.68 -2 3.36 -2 2 C-1.34 2 -0.68 2 0 2 C0 1.34 0 0.68 0 0 Z " fill="#5FAD62" transform="translate(96,50)"/>
<path d="M0 0 C0.66 0.33 1.32 0.66 2 1 C0.47261162 4.05477677 -1.79357955 6.39755536 -4 9 C-4.66 8.67 -5.32 8.34 -6 8 C-3.375 2.25 -3.375 2.25 0 0 Z " fill="#589759" transform="translate(92,46)"/>
<path d="M0 0 C0.433125 0.61875 0.86625 1.2375 1.3125 1.875 C2.99740483 4.2197245 2.99740483 4.2197245 6 6 C4.02 6.33 2.04 6.66 0 7 C0 4.69 0 2.38 0 0 Z " fill="#F8F8F8" transform="translate(44,142)"/>
<path d="M0 0 C1.32 0.33 2.64 0.66 4 1 C3.67 1.99 3.34 2.98 3 4 C1.35 4.33 -0.3 4.66 -2 5 C-1.34 3.35 -0.68 1.7 0 0 Z " fill="#656565" transform="translate(144,138)"/>
<path d="M0 0 C0 0.99 0 1.98 0 3 C-0.99 3 -1.98 3 -3 3 C-3 3.66 -3 4.32 -3 5 C-4.32 5 -5.64 5 -7 5 C-6.67 4.01 -6.34 3.02 -6 2 C-2.9375 0.8125 -2.9375 0.8125 0 0 Z " fill="#D1D1D1" transform="translate(149,140)"/>
<path d="M0 0 C0.66 0 1.32 0 2 0 C2.66 1.65 3.32 3.3 4 5 C2.35 5.33 0.7 5.66 -1 6 C-0.67 4.02 -0.34 2.04 0 0 Z " fill="#606061" transform="translate(71,135)"/>
<path d="M0 0 C0.99 0.33 1.98 0.66 3 1 C-0.465 3.97 -0.465 3.97 -4 7 C-4 4 -4 4 -2 1.8125 C-1.34 1.214375 -0.68 0.61625 0 0 Z " fill="#323032" transform="translate(85,92)"/>
<path d="M0 0 C0.33 0.99 0.66 1.98 1 3 C-1.31 3.66 -3.62 4.32 -6 5 C-5.67 3.68 -5.34 2.36 -5 1 C-3.35 0.67 -1.7 0.34 0 0 Z " fill="#5EA95F" transform="translate(109,45)"/>
</svg>
