<svg width="106" height="189" viewBox="0 0 106 189" fill="none" xmlns="http://www.w3.org/2000/svg">
<path d="M52.3843 0.554084C48.5343 -0.180042 43.6417 0.867267 38.7674 3.46821C35.6962 5.12702 33.8227 6.72434 32.6611 8.67563C32.382 9.14104 31.6147 10.9079 30.9645 12.6087C30.3142 14.3094 29.3184 16.9234 28.7543 18.4088C28.1759 19.8895 27.0488 22.8084 26.2272 24.888C23.6159 31.4789 22.6907 35.4375 22.5889 40.4819C22.4774 45.019 22.9741 47.7894 24.8507 53.3053C28.6688 64.48 31.5758 72.1057 35.6281 81.6352L37.1925 85.3278L35.7786 87.8575C31.3408 95.8524 25.2651 105.991 14.6555 123.102C7.14696 135.242 5.19931 138.433 3.81927 140.956C2.03396 144.234 0.62957 147.272 0.435039 148.356C0.23538 149.456 0.549917 151.662 1.15495 153.564C2.37528 157.336 6.33534 165.392 10.6165 172.805C12.022 175.228 13.7258 178.445 14.4251 179.959C16.0222 183.454 16.3753 184.908 16.3709 187.898C16.3586 188.033 16.3957 188.114 16.4347 188.092C16.4737 188.07 16.9466 187.059 17.4862 185.844C18.3376 183.966 24.8381 169.305 28.6202 160.784C29.2706 159.326 32.387 152.309 35.529 145.213C38.6905 138.106 42.211 130.142 43.3856 127.517C48.0406 117.002 50.1671 112.288 50.2842 112.222C50.3232 112.199 50.2956 112.382 50.2135 112.633C50.0905 113.01 50.1224 113.108 50.4101 113.202C50.6977 113.295 50.7418 113.258 50.6739 113.027C50.6143 112.868 50.7417 113.014 50.9329 113.355C51.1242 113.695 52.3425 115.814 53.6113 118.071C62.0021 132.79 69.0935 143.832 79.7029 158.578C83.166 163.377 86.2885 167.074 87.9017 168.226C88.2871 168.508 88.66 168.682 88.738 168.638C89.0461 168.425 93.0795 161.133 96.3299 154.924C100.623 146.691 103.992 139.043 104.926 135.4L105.333 133.812L103.937 132.383C97.3556 125.68 87.2039 111.97 75.5368 94.0266C72.243 88.9527 67.4029 81.2529 65.614 78.2001L64.3381 76.0624L64.8448 74.8018C65.8284 72.3229 73.0953 50.922 74.6393 45.8958C76.3566 40.3871 76.6363 39.1393 76.9926 35.4125C77.7329 27.7766 75.8246 20.894 71.4553 15.5562C70.5035 14.3763 66.4903 10.3372 63.4196 7.45752C60.24 4.47279 57.7903 2.66517 55.3851 1.55028C53.9221 0.864392 53.8358 0.836244 52.3843 0.554084ZM59.6627 16.9265C60.0247 23.1831 58.8937 31.8218 56.6163 40.3649C55.7062 43.7893 52.1697 54.3388 51.8155 54.6928C51.6236 54.891 51.4118 54.6133 50.1596 52.5007C41.7969 38.3308 34.818 24.6992 35.2486 23.3789C35.5818 22.3573 37.6091 20.045 39.3277 18.7275C43.1808 15.7935 47.8524 14.448 53.4288 14.7193C55.4821 14.8152 58.4363 15.2223 59.1832 15.5181C59.5325 15.6668 59.5922 15.8254 59.6627 16.9265Z" fill="black"/>
</svg>
