<svg width="600" height="386" viewBox="0 0 600 386" fill="none" xmlns="http://www.w3.org/2000/svg">
<g clip-path="url(#clip0_574_1786)">
<path d="M157.317 120.919C176.295 120.919 191.679 103.075 191.679 81.0629C191.679 59.0511 176.295 41.207 157.317 41.207C138.338 41.207 122.954 59.0511 122.954 81.0629C122.954 103.075 138.338 120.919 157.317 120.919Z" fill="#FF6584"/>
<path d="M265.075 203.884H96.5005C96.2895 203.887 96.0786 203.868 95.8706 203.826L175.598 43.6507C176.085 42.6532 176.791 41.8233 177.645 41.2459C178.498 40.6685 179.469 40.3643 180.457 40.3643C181.445 40.3643 182.416 40.6685 183.269 41.2459C184.123 41.8233 184.829 42.6532 185.316 43.6507L238.823 151.141L241.386 156.284L265.075 203.884Z" fill="#3F3D56"/>
<path opacity="0.2" d="M265.075 203.884H207.519L235.773 156.284L237.806 152.855L238.823 151.141L241.387 156.284L265.075 203.884Z" fill="black"/>
<path d="M358.936 203.884H213.133L241.387 156.284L243.42 152.855L280.237 90.8238C282.651 86.7583 288.457 86.5051 291.295 90.057C291.486 90.2992 291.663 90.5554 291.825 90.8238L358.936 203.884Z" fill="#3F3D56"/>
<path d="M401.735 177.533C407.453 177.533 412.089 172.156 412.089 165.523C412.089 158.89 407.453 153.513 401.735 153.513C396.016 153.513 391.38 158.89 391.38 165.523C391.38 172.156 396.016 177.533 401.735 177.533Z" fill="#4FB477"/>
<path d="M402.733 201.698H400.612L401.579 163.715L402.733 201.698Z" fill="#3F3D56"/>
<path d="M401.766 170.914L404.043 167.26L401.734 171.818L401.485 171.312L401.766 170.914Z" fill="#3F3D56"/>
<path d="M401.516 174.603L399.239 170.95L401.548 175.507L401.797 175.001L401.516 174.603Z" fill="#3F3D56"/>
<path d="M496.719 177.533C502.438 177.533 507.074 172.156 507.074 165.523C507.074 158.89 502.438 153.513 496.719 153.513C491.001 153.513 486.365 158.89 486.365 165.523C486.365 172.156 491.001 177.533 496.719 177.533Z" fill="#4FB477"/>
<path d="M497.718 201.698H495.597L496.564 163.715L497.718 201.698Z" fill="#3F3D56"/>
<path d="M496.751 170.914L499.028 167.26L496.72 171.818L496.47 171.312L496.751 170.914Z" fill="#3F3D56"/>
<path d="M496.502 174.603L494.225 170.95L496.533 175.507L496.782 175.001L496.502 174.603Z" fill="#3F3D56"/>
<path d="M431.73 166.009C440.177 166.009 447.024 158.067 447.024 148.271C447.024 138.475 440.177 130.533 431.73 130.533C423.284 130.533 416.438 138.475 416.438 148.271C416.438 158.067 423.284 166.009 431.73 166.009Z" fill="#4FB477"/>
<path d="M433.204 201.698H430.072L431.5 145.6L433.204 201.698Z" fill="#3F3D56"/>
<path d="M431.777 156.231L435.139 150.836L431.731 157.568L431.362 156.819L431.777 156.231Z" fill="#3F3D56"/>
<path d="M431.408 161.681L428.045 156.286L431.454 163.017L431.823 162.269L431.408 161.681Z" fill="#3F3D56"/>
<path d="M469.025 166.009C477.471 166.009 484.318 158.067 484.318 148.271C484.318 138.475 477.471 130.533 469.025 130.533C460.579 130.533 453.732 138.475 453.732 148.271C453.732 158.067 460.579 166.009 469.025 166.009Z" fill="#4FB477"/>
<path d="M470.499 201.698H467.367L468.795 145.6L470.499 201.698Z" fill="#3F3D56"/>
<path d="M469.071 156.231L472.434 150.836L469.025 157.568L468.657 156.819L469.071 156.231Z" fill="#3F3D56"/>
<path d="M468.703 161.681L465.34 156.286L468.749 163.017L469.117 162.269L468.703 161.681Z" fill="#3F3D56"/>
<path d="M372.292 166.009C380.738 166.009 387.585 158.067 387.585 148.271C387.585 138.475 380.738 130.533 372.292 130.533C363.846 130.533 356.999 138.475 356.999 148.271C356.999 158.067 363.846 166.009 372.292 166.009Z" fill="#4FB477"/>
<path d="M373.765 201.698H370.633L372.062 145.6L373.765 201.698Z" fill="#3F3D56"/>
<path d="M372.338 156.231L375.7 150.836L372.292 157.568L371.924 156.819L372.338 156.231Z" fill="#3F3D56"/>
<path d="M371.97 161.681L368.607 156.286L372.016 163.017L372.384 162.269L371.97 161.681Z" fill="#3F3D56"/>
<path d="M553.223 386H54.1439C47.8559 386 41.6295 384.563 35.8202 381.772C30.0108 378.982 24.7323 374.891 20.2861 369.734C15.8398 364.577 12.3128 358.454 9.90653 351.717C7.50023 344.979 6.26172 337.757 6.26172 330.464C6.26172 323.171 7.50023 315.949 9.90653 309.211C12.3128 302.473 15.8398 296.351 20.2861 291.194C24.7323 286.037 30.0108 281.946 35.8202 279.155C41.6295 276.364 47.8559 274.928 54.1439 274.928H552.118C557.002 274.928 561.687 272.677 565.14 268.671C568.594 264.665 570.534 259.232 570.534 253.567C570.534 247.902 568.594 242.469 565.14 238.464C561.687 234.458 557.002 232.207 552.118 232.207H37.5693V198.031H552.118C564.817 198.031 576.996 203.882 585.976 214.297C594.956 224.712 600 238.838 600 253.567C600 268.297 594.956 282.422 585.976 292.837C576.996 303.253 564.817 309.104 552.118 309.104H54.1439C49.2596 309.104 44.5753 311.354 41.1216 315.36C37.6679 319.366 35.7277 324.799 35.7277 330.464C35.7277 336.129 37.6679 341.562 41.1216 345.568C44.5753 349.573 49.2596 351.824 54.1439 351.824H553.223V386Z" fill="#E6E6E6"/>
<path d="M78.8214 214.265H55.9854V215.974H78.8214V214.265Z" fill="white"/>
<path d="M143.647 214.265H120.811V215.974H143.647V214.265Z" fill="white"/>
<path d="M208.471 214.265H185.635V215.974H208.471V214.265Z" fill="white"/>
<path d="M273.297 214.265H250.46V215.974H273.297V214.265Z" fill="white"/>
<path d="M338.122 214.265H315.286V215.974H338.122V214.265Z" fill="white"/>
<path d="M402.946 214.265H380.11V215.974H402.946V214.265Z" fill="white"/>
<path d="M467.772 214.265H444.936V215.974H467.772V214.265Z" fill="white"/>
<path d="M532.597 214.265H509.761V215.974H532.597V214.265Z" fill="white"/>
<path d="M78.8214 291.161H55.9854V292.87H78.8214V291.161Z" fill="white"/>
<path d="M143.647 291.161H120.811V292.87H143.647V291.161Z" fill="white"/>
<path d="M208.471 291.161H185.635V292.87H208.471V291.161Z" fill="white"/>
<path d="M273.297 291.161H250.46V292.87H273.297V291.161Z" fill="white"/>
<path d="M338.122 291.161H315.286V292.87H338.122V291.161Z" fill="white"/>
<path d="M402.946 291.161H380.11V292.87H402.946V291.161Z" fill="white"/>
<path d="M467.772 291.161H444.936V292.87H467.772V291.161Z" fill="white"/>
<path d="M532.597 291.161H509.761V292.87H532.597V291.161Z" fill="white"/>
<path d="M78.8214 368.058H55.9854V369.766H78.8214V368.058Z" fill="white"/>
<path d="M143.647 368.058H120.811V369.766H143.647V368.058Z" fill="white"/>
<path d="M208.471 368.058H185.635V369.766H208.471V368.058Z" fill="white"/>
<path d="M273.297 368.058H250.46V369.766H273.297V368.058Z" fill="white"/>
<path d="M338.122 368.058H315.286V369.766H338.122V368.058Z" fill="white"/>
<path d="M402.946 368.058H380.11V369.766H402.946V368.058Z" fill="white"/>
<path d="M467.772 368.058H444.936V369.766H467.772V368.058Z" fill="white"/>
<path d="M532.597 368.058H509.761V369.766H532.597V368.058Z" fill="white"/>
<path d="M400.655 67.8159C403.054 67.8133 405.414 68.5206 407.511 69.871H393.815C395.907 68.521 398.261 67.8136 400.655 67.8159Z" fill="#E6E6E6"/>
<path d="M374.078 65.7608C378.085 65.7553 381.996 67.1913 385.27 69.8708H362.9C366.171 67.1944 370.075 65.7586 374.078 65.7608Z" fill="#E6E6E6"/>
<path d="M223.531 39.746C224.017 29.7781 227.539 20.3343 233.47 13.0984C239.401 5.86257 247.355 1.30501 255.914 0.238294C264.472 -0.828418 273.079 1.66506 280.201 7.27417C287.322 12.8833 292.494 21.2434 294.794 30.8641C295.234 30.8457 295.674 30.8252 296.118 30.8252C303.965 30.8269 311.601 33.7755 317.883 39.2298C324.165 44.6841 328.756 52.3509 330.968 61.0833C336.168 58.4333 341.979 57.8584 347.49 59.4485C353.002 61.0387 357.903 64.7041 361.427 69.8708H248.127C244.822 69.8816 241.549 69.1188 238.504 67.6279C235.458 66.137 232.704 63.9487 230.405 61.1941C228.106 58.4395 226.31 55.1752 225.125 51.5966C223.939 48.018 223.388 44.1987 223.505 40.3674C223.512 40.1606 223.521 39.9534 223.531 39.746Z" fill="#E6E6E6"/>
<path d="M408.922 98.5745C406.523 98.5719 404.163 99.2792 402.065 100.63H415.761C413.669 99.2796 411.315 98.5722 408.922 98.5745Z" fill="#E6E6E6"/>
<path d="M435.499 96.5193C431.492 96.5139 427.581 97.9498 424.307 100.629H446.676C443.406 97.953 439.501 96.5172 435.499 96.5193Z" fill="#E6E6E6"/>
<path d="M586.045 70.5048C585.559 60.5368 582.037 51.0931 576.106 43.8572C570.175 36.6214 562.221 32.0638 553.662 30.9971C545.104 29.9304 536.497 32.4238 529.376 38.033C522.255 43.6421 517.083 52.0022 514.782 61.6228C514.342 61.6045 513.902 61.584 513.458 61.584C505.611 61.5857 497.975 64.5342 491.693 69.9885C485.411 75.4428 480.821 83.1097 478.608 91.8421C473.408 89.1921 467.598 88.6172 462.086 90.2073C456.574 91.7974 451.673 95.4629 448.149 100.63H561.449C564.754 100.64 568.028 99.8775 571.073 98.3866C574.118 96.8958 576.872 94.7075 579.171 91.9529C581.47 89.1983 583.266 85.9339 584.452 82.3553C585.637 78.7767 586.188 74.9574 586.071 71.1261C586.064 70.9193 586.055 70.7122 586.045 70.5048Z" fill="#E6E6E6"/>
<path d="M510.51 362.117L523.678 362.125L523.679 359.701L510.511 359.693L510.51 362.117Z" fill="#3F3D56"/>
<path d="M415.303 360.24L418.02 360.969L521.275 361.033L522.203 358.524C523.823 354.22 524.379 349.479 523.809 344.829C523.364 341.364 522.25 337.921 519.719 336.425L515.137 301.028L458.011 300.909L435.909 321.585C435.909 321.585 425.484 321.368 419.82 329.546C417.776 332.587 416.57 336.271 416.358 340.119L416.134 344.373L415.303 360.24Z" fill="#4FB477"/>
<path d="M437.982 374.436C445.023 374.436 450.732 367.815 450.732 359.648C450.732 351.481 445.023 344.86 437.982 344.86C430.94 344.86 425.231 351.481 425.231 359.648C425.231 367.815 430.94 374.436 437.982 374.436Z" fill="#3F3D56"/>
<path d="M437.982 367.431C441.688 367.431 444.692 363.946 444.692 359.648C444.692 355.349 441.688 351.865 437.982 351.865C434.275 351.865 431.271 355.349 431.271 359.648C431.271 363.946 434.275 367.431 437.982 367.431Z" fill="#CCCCCC"/>
<path d="M500.896 374.475C507.938 374.475 513.646 367.854 513.646 359.687C513.646 351.52 507.938 344.899 500.896 344.899C493.854 344.899 488.146 351.52 488.146 359.687C488.146 367.854 493.854 374.475 500.896 374.475Z" fill="#3F3D56"/>
<path d="M500.896 367.47C504.602 367.47 507.607 363.985 507.607 359.687C507.607 355.388 504.602 351.904 500.896 351.904C497.19 351.904 494.186 355.388 494.186 359.687C494.186 363.985 497.19 367.47 500.896 367.47Z" fill="#CCCCCC"/>
<path d="M444.69 319.169L475.533 319.184H479.299L485.655 319.189V318.651L485.66 312.168L485.664 304.888H481.435L477.67 304.883L471.001 304.878H467.236L459.536 304.872L444.69 319.169Z" fill="white"/>
<path d="M490.674 319.195L506.974 319.205L506.978 315.495V309.011L506.983 304.904H504.596L500.831 304.898L490.679 304.893L490.674 319.195Z" fill="white"/>
<path d="M483.559 334.463L485.649 334.465L485.652 329.858L483.561 329.857L483.559 334.463Z" fill="#3F3D56"/>
<path d="M453.047 325.717L453.048 323.292L449.077 323.29L449.075 325.714L453.047 325.717Z" fill="#3F3D56"/>
<path d="M451.584 324.358L451.354 324.358C450.78 324.358 450.212 324.226 449.682 323.972C449.153 323.717 448.671 323.343 448.266 322.872C447.86 322.402 447.539 321.843 447.32 321.228C447.1 320.613 446.988 319.954 446.988 319.289C446.988 318.623 447.102 317.965 447.321 317.35C447.541 316.735 447.863 316.177 448.269 315.707C448.675 315.237 449.157 314.864 449.687 314.609C450.217 314.355 450.785 314.224 451.359 314.225L451.589 314.225L451.584 324.358Z" fill="#3F3D56"/>
<path d="M416.134 344.373C417.714 344.573 419.305 344.119 420.625 343.091C421.946 342.064 422.911 340.529 423.352 338.757C423.792 336.985 423.679 335.09 423.033 333.405C422.387 331.72 421.249 330.353 419.819 329.546C417.776 332.587 416.57 336.271 416.357 340.119L416.134 344.373Z" fill="#3F3D56"/>
<path d="M477.67 304.883L485.655 318.651L485.66 312.168L481.435 304.888L477.67 304.883Z" fill="#F2F2F2"/>
<path d="M500.831 304.898L506.978 315.495V309.011L504.596 304.903L500.831 304.898Z" fill="#F2F2F2"/>
<path d="M467.236 304.877L475.534 319.184H479.299L471.001 304.877H467.236Z" fill="#F2F2F2"/>
<path d="M33.8858 244.169C52.6004 244.169 67.7716 226.573 67.7716 204.867C67.7716 183.16 52.6004 165.564 33.8858 165.564C15.1712 165.564 0 183.16 0 204.867C0 226.573 15.1712 244.169 33.8858 244.169Z" fill="#3F3D56"/>
<path d="M34.0269 216.699L17.0693 197.031C16.5177 196.389 16.2081 195.52 16.2085 194.615C16.2089 193.709 16.5194 192.84 17.0716 192.2C17.6238 191.559 18.3727 191.199 19.1537 191.199C19.9346 191.198 20.6838 191.557 21.2367 192.197L33.7449 206.705L73.6596 153.912C74.1751 153.232 74.9023 152.818 75.6815 152.759C76.4606 152.7 77.2279 153.003 77.8149 153.6C78.4019 154.197 78.7606 155.04 78.8122 155.943C78.8639 156.847 78.6042 157.737 78.0902 158.419L34.0269 216.699Z" fill="#4FB477"/>
</g>
<defs>
<clipPath id="clip0_574_1786">
<rect width="600" height="386" fill="white"/>
</clipPath>
</defs>
</svg>
