<svg width="104" height="41" viewBox="0 0 104 41" fill="none" xmlns="http://www.w3.org/2000/svg">
<path d="M35.2096 12.4594C35.1344 12.6281 35.1093 17.55 35.1344 23.3438L35.2096 33.8906L35.811 33.975C36.1368 34.0312 36.5127 33.9187 36.613 33.6937C36.7383 33.4969 36.8385 29.3062 36.8385 24.3844V15.4688L39.1691 18.3938C40.4221 20.025 41.6751 21.4031 41.9257 21.5156C42.3768 21.7125 43.1036 21.2344 43.1036 20.7844C43.1036 20.5312 40.1464 16.65 37.6905 13.6969C36.3874 12.15 35.4602 11.6719 35.2096 12.4594Z" fill="white"/>
<path d="M51.9248 12.4594C51.7243 12.7125 51.599 15.525 51.574 21.6562L51.4988 30.4594L49.1181 27.45C47.3889 25.2281 46.6121 24.4687 46.2362 24.525C45.9354 24.5812 45.7099 24.8625 45.6598 25.2281C45.5345 26.1562 51.9499 34.0875 52.7268 33.975L53.253 33.8906V23.0625C53.253 12.2906 53.253 12.2344 52.7268 12.15C52.4511 12.0937 52.0752 12.2344 51.9248 12.4594Z" fill="white"/>
<path d="M57.6133 12.7406C55.9092 14.0062 55.8591 14.3719 55.9343 23.3438C56.0095 32.2312 56.0345 32.3156 57.7136 33.4688C58.4654 33.975 59.0167 34.0312 65.1063 34.0312C72.3989 34.0312 72.7748 33.9469 73.677 32.2594C74.1531 31.4156 74.1782 30.7969 74.1782 23.0625C74.1782 11.4187 74.7545 12.0938 65.1314 12.0938C58.6157 12.0938 58.4403 12.1219 57.6133 12.7406ZM72.048 14.6531C72.5242 15.1875 72.5492 15.5812 72.5492 23.0625C72.5492 30.8531 72.5492 30.9375 71.9729 31.5562C71.4215 32.175 71.2461 32.2031 65.783 32.2875C59.568 32.3719 58.3902 32.2031 57.9391 31.0781C57.7386 30.5719 57.6384 27.9844 57.6384 22.95C57.6384 15.9469 57.6635 15.4969 58.1396 14.8219C58.7912 13.8937 59.0919 13.8656 65.9083 14.0062C71.0957 14.0906 71.5969 14.1469 72.048 14.6531Z" fill="white"/>
<path d="M64.4297 21.9094C63.8283 23.175 64.3545 24.9187 65.3068 24.6937C65.7078 24.6094 65.783 24.3562 65.783 23.0625C65.783 21.6844 65.7328 21.5156 65.2316 21.4312C64.8808 21.375 64.5801 21.5437 64.4297 21.9094Z" fill="white"/>
<path d="M76.9349 12.5156C76.6843 12.8531 76.6593 13.6406 76.7595 15.7219C76.9349 18.9844 77.4862 20.5594 78.9648 22.0781L79.9421 23.0625L78.9648 24.0469C77.5113 25.5375 76.9099 27.1969 76.7595 30.2344C76.6091 33.1312 76.8597 34.1156 77.7619 33.975C78.2882 33.8906 78.3132 33.6937 78.4385 30.9375C78.5889 27.45 79.065 26.1844 80.6438 24.9187C81.6212 24.1312 81.8467 24.1031 84.879 23.9625C91.6703 23.6812 93.199 24.9187 93.4496 30.7969C93.5749 33.4687 93.6501 33.8906 94.0511 33.975C94.3017 34.0312 94.6776 33.9187 94.9031 33.6937C95.2289 33.3844 95.279 32.8781 95.1537 30.4594C94.9783 27.0281 94.5021 25.6219 93.0236 24.1031L91.9711 23.0625L93.0236 21.9937C94.452 20.5312 95.0034 19.0406 95.1537 15.9187C95.3041 12.9937 95.0535 12.0094 94.1513 12.15C93.625 12.2344 93.6 12.4031 93.4747 15.3281C93.3243 18.9 92.8732 20.025 91.1441 21.3187C90.1417 22.05 90.0414 22.0781 86.107 22.0781C81.4207 22.0781 80.5937 21.7969 79.3407 19.7437C78.639 18.6469 78.5638 18.3094 78.4385 15.3844C78.3132 12.4594 78.2631 12.2344 77.787 12.15C77.5113 12.0937 77.1103 12.2625 76.9349 12.5156Z" fill="white"/>
</svg>
