<?xml version="1.0" encoding="UTF-8"?>
<svg version="1.1" xmlns="http://www.w3.org/2000/svg" width="176" height="148">
<path d="M0 0 C0.66 0 1.32 0 2 0 C3.3726682 1.97321053 4.70427617 3.97543152 6 6 C6.66 6.66 7.32 7.32 8 8 C8.95914183 9.38105173 9.89383295 10.77920039 10.8125 12.1875 C15.45459269 19.45155682 15.45459269 19.45155682 21 26 C22.00052165 27.54891253 22.97568379 29.11426029 23.9375 30.6875 C26.96410078 35.49966861 30.19015914 40.11168961 33.5625 44.6875 C34.27152466 45.65127563 34.27152466 45.65127563 34.99487305 46.63452148 C37.52347749 50.05406976 40.11337912 53.41273861 42.75 56.75 C43.4925 57.8225 44.235 58.895 45 60 C44 63 44 63 42.328125 63.984375 C41.64234375 64.23703125 40.9565625 64.4896875 40.25 64.75 C39.57453125 65.01296875 38.8990625 65.2759375 38.203125 65.546875 C35.24795082 66.15467678 33.8253277 66.16055769 31 65 C29.04395618 62.71455841 27.61090327 60.17001679 26.125 57.5625 C25.24159163 56.08083201 24.35617802 54.60035772 23.46875 53.12109375 C23.04335937 52.40421387 22.61796875 51.68733398 22.1796875 50.94873047 C20.75789308 48.60006261 19.22464471 46.35587706 17.625 44.125 C12.21127884 36.55883549 7.14099994 28.75268367 2 21 C-1.431617 25.20147857 -4.63620004 29.54256771 -7.8125 33.9375 C-8.36856934 34.70441162 -8.92463867 35.47132324 -9.49755859 36.26147461 C-12.76938764 40.80427295 -15.95932121 45.39237521 -19.08203125 50.0390625 C-19.75580811 51.04074463 -20.42958496 52.04242676 -21.1237793 53.07446289 C-22.44375742 55.04533178 -23.75659746 57.02100269 -25.06176758 59.00170898 C-25.6627124 59.89962158 -26.26365723 60.79753418 -26.8828125 61.72265625 C-27.41277832 62.52453369 -27.94274414 63.32641113 -28.48876953 64.15258789 C-30 66 -30 66 -33 67 C-35.26171875 66.22265625 -35.26171875 66.22265625 -37.6875 65.0625 C-38.49574219 64.68222656 -39.30398437 64.30195313 -40.13671875 63.91015625 C-40.75160156 63.60980469 -41.36648437 63.30945313 -42 63 C-40.62992438 59.34426939 -38.98982135 56.04532353 -37 52.6875 C-36.484375 51.80449219 -35.96875 50.92148438 -35.4375 50.01171875 C-34.963125 49.34785156 -34.48875 48.68398437 -34 48 C-33.34 48 -32.68 48 -32 48 C-31.78601562 47.34128906 -31.57203125 46.68257812 -31.3515625 46.00390625 C-29.51955832 41.93219754 -26.99133464 38.54048619 -24.375 34.9375 C-23.28000042 33.40974902 -22.18625328 31.8810996 -21.09375 30.3515625 C-20.56136719 29.60680664 -20.02898437 28.86205078 -19.48046875 28.09472656 C-17.5551624 25.37059587 -15.70792865 22.59945299 -13.875 19.8125 C-10.8528297 15.24749906 -7.77135027 10.73001867 -4.625 6.25 C-4.19558105 5.62843018 -3.76616211 5.00686035 -3.32373047 4.36645508 C-2.2666023 2.8736786 -1.13906163 1.43123729 0 0 Z " fill="#2C2C2C" transform="translate(85,78)"/>
<path d="M0 0 C26.07 0 52.14 0 79 0 C77.50289391 3.74276522 76.28345233 6.31489207 74.09375 9.5546875 C73.51979492 10.4091748 72.94583984 11.26366211 72.35449219 12.14404297 C71.43651855 13.4958667 71.43651855 13.4958667 70.5 14.875 C69.22393674 16.7708188 67.94789518 18.66665221 66.671875 20.5625 C66.04474609 21.490625 65.41761719 22.41875 64.77148438 23.375 C62.41613737 26.86517241 60.08165752 30.3689798 57.75 33.875 C56.95587871 35.06650593 56.16160928 36.25791314 55.3671875 37.44921875 C54.78662598 38.32006104 54.78662598 38.32006104 54.19433594 39.20849609 C52.94466146 41.08300781 51.69498698 42.95751953 50.4453125 44.83203125 C50.01976074 45.47084229 49.59420898 46.10965332 49.15576172 46.76782227 C48.31284252 48.03123699 47.46816161 49.29347842 46.62158203 50.55444336 C44.61525537 53.5472206 42.64196856 56.55254819 40.734375 59.609375 C40.03828125 60.70765625 39.3421875 61.8059375 38.625 62.9375 C37.71621094 64.40509766 37.71621094 64.40509766 36.7890625 65.90234375 C35.90347656 66.94068359 35.90347656 66.94068359 35 68 C30.62548685 68 29.99527997 67.59622397 26.75 65 C26.04359375 64.443125 25.3371875 63.88625 24.609375 63.3125 C24.07828125 62.879375 23.5471875 62.44625 23 62 C24.83808218 57.8852024 27.43981762 54.31134553 30 50.625 C30.48186768 49.92616699 30.96373535 49.22733398 31.46020508 48.50732422 C33.9223847 44.94838836 36.41237692 41.41238496 38.94921875 37.90625 C39.64047852 36.94984619 39.64047852 36.94984619 40.34570312 35.97412109 C41.22657471 34.76019799 42.1118613 33.54946393 43.00195312 32.34228516 C45.28994753 29.46885237 45.28994753 29.46885237 46 26 C46.97188898 24.97265789 47.97792804 23.97742974 49 23 C50.0878015 21.68722739 51.14986236 20.35277203 52.1875 19 C52.71730469 18.319375 53.24710938 17.63875 53.79296875 16.9375 C55.26438392 14.95607082 55.26438392 14.95607082 55 12 C55.99 11.67 56.98 11.34 58 11 C38.86 10.67 19.72 10.34 0 10 C0 6.7 0 3.4 0 0 Z " fill="#282828" transform="translate(1,66)"/>
<path d="M0 0 C26.07 0 52.14 0 79 0 C79 3.3 79 6.6 79 10 C50.29 10.495 50.29 10.495 21 11 C24.63 15.95 28.26 20.9 32 26 C33.99042745 28.785175 35.97405937 31.57128572 37.9375 34.375 C38.93094452 35.7877921 39.92443567 37.20055142 40.91796875 38.61328125 C41.41731934 39.32436035 41.91666992 40.03543945 42.43115234 40.76806641 C45.19776707 44.70401284 47.97454894 48.63278223 50.75 52.5625 C51.76566777 54.0012719 52.78129689 55.44007107 53.796875 56.87890625 C54.52390625 57.90886719 55.2509375 58.93882813 56 60 C54.54487309 63.08458444 53.3616275 64.82000279 50.5625 66.8125 C49.96566406 67.25207031 49.36882812 67.69164062 48.75390625 68.14453125 C47 69 47 69 44 68 C42.68359375 66.22265625 42.68359375 66.22265625 41.4375 64.0625 C40.05802973 61.69462424 38.95028299 59.95028299 37 58 C35.91206537 56.3622123 34.85350088 54.70481757 33.81201172 53.03710938 C30.28731919 47.44066838 26.66603631 41.91602823 23.0078125 36.40625 C21.71339601 34.45061723 20.41912935 32.49488529 19.125 30.5390625 C17.11189692 27.49864405 15.0977437 24.45893975 13.08105469 21.42089844 C11.11607582 18.45969895 9.1553557 15.49571794 7.1953125 12.53125 C6.58809357 11.61879517 5.98087463 10.70634033 5.35525513 9.76623535 C4.79732269 8.92105347 4.23939026 8.07587158 3.66455078 7.20507812 C3.17270294 6.46326294 2.6808551 5.72144775 2.17410278 4.95715332 C1 3 1 3 0 0 Z " fill="#2A2A2A" transform="translate(92,66)"/>
<path d="M0 0 C3.19088855 2.9901602 6.68954111 6.45525499 7.23828125 10.953125 C7.41845566 16.52904883 6.77158562 19.6168059 3 24 C-2.22089158 28.81928454 -6.71495026 30.43614974 -13.73046875 30.25 C-20.04812025 29.5540797 -24.55562059 26.23766409 -29 22 C-31.55875321 17.78198702 -31.67806051 13.81339252 -31 9 C-28.260795 3.62304204 -24.69683463 0.19859317 -19.1875 -2.25 C-12.40805779 -3.84516287 -6.06419995 -3.60100946 0 0 Z " fill="#272727" transform="translate(98,8)"/>
<path d="M0 0 C12.70507961 -0.72600455 12.70507961 -0.72600455 16.3828125 1.3359375 C18.1875 3 18.1875 3 19.66796875 4.6875 C21.04448536 6.35093264 21.04448536 6.35093264 24 6 C24.33 6.99 24.66 7.98 25 9 C25 6.03 25 3.06 25 0 C29.62 0 34.24 0 39 0 C39 6.93 39 13.86 39 21 C30.39631672 21.76666485 25.42222067 22.16287354 18.625 16.5 C17.05281251 15.03202091 15.49940511 13.54224526 14 12 C14 14.97 14 17.94 14 21 C9.38 21 4.76 21 0 21 C0 14.07 0 7.14 0 0 Z " fill="#2C2C2C" transform="translate(84,41)"/>
<path d="M0 0 C6.47320984 -0.19765526 12.36608245 0.10101758 18.1953125 3.15625 C20.2578125 5.34375 20.2578125 5.34375 21.1953125 7.15625 C18.8853125 7.81625 16.5753125 8.47625 14.1953125 9.15625 C15.34 9.5584375 15.34 9.5584375 16.5078125 9.96875 C19.10776953 11.11756822 20.58416673 11.82903944 22.1953125 14.15625 C22.04847199 16.50569815 21.41296201 17.82337429 20.1328125 19.78125 C13.48996727 24.49552726 3.92164555 23.74989142 -3.8046875 23.15625 C-8.23450084 22.1748346 -11.816022 20.66860915 -14.8046875 17.15625 C-14.8046875 16.49625 -14.8046875 15.83625 -14.8046875 15.15625 C-12.67975609 15.12931425 -10.55472838 15.10988372 -8.4296875 15.09375 C-7.24632812 15.08214844 -6.06296875 15.07054687 -4.84375 15.05859375 C-1.8046875 15.15625 -1.8046875 15.15625 0.1953125 16.15625 C2.5282991 16.19647391 4.86237916 16.19945247 7.1953125 16.15625 C5.53242187 15.86621094 5.53242187 15.86621094 3.8359375 15.5703125 C2.37233774 15.30761511 0.90879923 15.04457633 -0.5546875 14.78125 C-1.28429688 14.65492187 -2.01390625 14.52859375 -2.765625 14.3984375 C-10.05422794 13.07323697 -10.05422794 13.07323697 -12.8046875 11.15625 C-13.8046875 8.28125 -13.8046875 8.28125 -13.8046875 5.15625 C-11.8043219 2.07235304 -10.36171947 1.29550799 -6.8046875 0.40625 C-4.53909015 0.21177812 -2.27061544 0.12649668 0 0 Z M-0.8046875 6.15625 C1.15165225 8.56746859 1.15165225 8.56746859 4.8203125 8.28125 C5.9340625 8.24 7.0478125 8.19875 8.1953125 8.15625 C7.8653125 7.49625 7.5353125 6.83625 7.1953125 6.15625 C4.5553125 6.15625 1.9153125 6.15625 -0.8046875 6.15625 Z " fill="#333333" transform="translate(18.8046875,39.84375)"/>
<path d="M0 0 C1.34905313 0.04232195 2.69793464 0.0903437 4.04663086 0.14282227 C5.10991859 0.17823875 5.10991859 0.17823875 6.19468689 0.21437073 C8.46714482 0.29117497 10.73927617 0.37512626 13.01147461 0.45922852 C14.5485678 0.51243248 16.08567711 0.56517297 17.62280273 0.61743164 C21.39840164 0.74681256 25.17372263 0.88260542 28.94897461 1.02172852 C28.99169561 2.68784757 28.98961293 4.35555736 28.94897461 6.02172852 C27.94897461 7.02172852 27.94897461 7.02172852 24.16772461 7.08422852 C21.78860256 7.05999298 19.40993653 7.02109785 17.03100586 6.98266602 C15.00372548 6.9620146 12.97608328 6.98822259 10.94897461 7.02172852 C10.61897461 7.35172852 10.28897461 7.68172852 9.94897461 8.02172852 C15.22897461 8.02172852 20.50897461 8.02172852 25.94897461 8.02172852 C25.94897461 10.00172852 25.94897461 11.98172852 25.94897461 14.02172852 C20.66897461 14.02172852 15.38897461 14.02172852 9.94897461 14.02172852 C11.93549437 16.45980423 11.93549437 16.45980423 15.82788086 16.18188477 C17.38925414 16.15925617 18.95050366 16.12627916 20.51147461 16.08422852 C23.32826026 16.02244686 26.13055784 16.00115613 28.94897461 16.02172852 C29.94897461 17.02172852 29.94897461 17.02172852 29.94897461 22.02172852 C18.72897461 22.02172852 7.50897461 22.02172852 -4.05102539 22.02172852 C-4.07165039 18.57735352 -4.09227539 15.13297852 -4.11352539 11.58422852 C-4.12262939 10.49698486 -4.1317334 9.40974121 -4.14111328 8.28955078 C-4.14361084 7.4393335 -4.1461084 6.58911621 -4.14868164 5.71313477 C-4.15391846 4.83858643 -4.15915527 3.96403809 -4.16455078 3.06298828 C-3.97851562 -0.28204394 -3.41636944 0.02433039 0 0 Z " fill="#353535" transform="translate(49.051025390625,39.978271484375)"/>
<path d="M0 0 C2.25062454 0.03309742 4.50073465 0.10257876 6.75 0.1875 C8.00296875 0.22230469 9.2559375 0.25710937 10.546875 0.29296875 C14 1 14 1 16.125 3.06640625 C16.74375 4.03449219 17.3625 5.00257812 18 6 C18.85791325 7.24579956 19.71739362 8.49052084 20.578125 9.734375 C21.47116419 11.0713072 22.36175114 12.40988036 23.25 13.75 C23.93835938 14.77673828 23.93835938 14.77673828 24.640625 15.82421875 C28 20.87327939 28 20.87327939 28 22 C23.38 22 18.76 22 14 22 C14 21.34 14 20.68 14 20 C9.38 20 4.76 20 0 20 C0 20.66 0 21.32 0 22 C-4.62 22 -9.24 22 -14 22 C-9.33333333 14.66666667 -4.66666667 7.33333333 0 0 Z M6 9 C5.34 10.65 4.68 12.3 4 14 C5.98 14 7.96 14 10 14 C9.03114628 12.31503702 8.03013277 10.64821244 7 9 C6.67 9 6.34 9 6 9 Z " fill="#313131" transform="translate(140,40)"/>
<path d="M0 0 C4.28876804 3.80758919 7.21146717 8.51927925 10.375 13.25 C14.43346823 19.29029034 18.56970211 25.22518385 23 31 C21.54487309 34.08458444 20.3616275 35.82000279 17.5625 37.8125 C16.96566406 38.25207031 16.36882812 38.69164062 15.75390625 39.14453125 C14 40 14 40 11 39 C9.68359375 37.22265625 9.68359375 37.22265625 8.4375 35.0625 C7.05802973 32.69462424 5.95028299 30.95028299 4 29 C2.93330954 27.39131547 1.89587212 25.76314363 0.875 24.125 C-2.97385091 18.00735276 -6.96915914 11.99914756 -11 6 C-7.46875 2.03125 -7.46875 2.03125 -3.25 1.75 C-2.1775 1.8325 -1.105 1.915 0 2 C0 1.34 0 0.68 0 0 Z " fill="#2C2C2C" transform="translate(125,95)"/>
<path d="M0 0 C6.47320984 -0.19765526 12.36608245 0.10101758 18.1953125 3.15625 C20.2578125 5.34375 20.2578125 5.34375 21.1953125 7.15625 C18.8853125 7.81625 16.5753125 8.47625 14.1953125 9.15625 C14.1953125 9.48625 14.1953125 9.81625 14.1953125 10.15625 C10.2353125 9.82625 6.2753125 9.49625 2.1953125 9.15625 C2.1953125 8.82625 2.1953125 8.49625 2.1953125 8.15625 C3.8453125 7.82625 5.4953125 7.49625 7.1953125 7.15625 C4.3631445 6.82176741 4.3631445 6.82176741 1.1953125 7.15625 C-1.05533852 9.07291921 -1.05533852 9.07291921 -2.8046875 11.15625 C-3.4646875 11.15625 -4.1246875 11.15625 -4.8046875 11.15625 C-4.8046875 11.81625 -4.8046875 12.47625 -4.8046875 13.15625 C-3.1546875 13.15625 -1.5046875 13.15625 0.1953125 13.15625 C0.1953125 12.49625 0.1953125 11.83625 0.1953125 11.15625 C1.5153125 10.82625 2.8353125 10.49625 4.1953125 10.15625 C4.8553125 11.80625 5.5153125 13.45625 6.1953125 15.15625 C-7.61851729 14.49844858 -7.61851729 14.49844858 -12.8046875 11.15625 C-13.9921875 8.21875 -13.9921875 8.21875 -13.8046875 5.15625 C-11.8043219 2.07235304 -10.36171947 1.29550799 -6.8046875 0.40625 C-4.53909015 0.21177812 -2.27061544 0.12649668 0 0 Z " fill="#2C2C2C" transform="translate(18.8046875,39.84375)"/>
<path d="M0 0 C2.26875 -0.061875 4.5375 -0.12375 6.875 -0.1875 C8.78925781 -0.23970703 8.78925781 -0.23970703 10.7421875 -0.29296875 C11.81726563 -0.19628906 12.89234375 -0.09960938 14 0 C16.56687367 3.8503105 15.83288724 5.58569763 15 10 C14.01 10 13.02 10 12 10 C12 13.63 12 17.26 12 21 C8.04 21 4.08 21 0 21 C0 14.07 0 7.14 0 0 Z " fill="#292929" transform="translate(84,41)"/>
<path d="M0 0 C0.66 0.66 1.32 1.32 2 2 C2.66 2 3.32 2 4 2 C4 2.66 4 3.32 4 4 C5.98 3.67 7.96 3.34 10 3 C11 6 11 6 10.24316406 7.70166016 C9.83807617 8.30800293 9.43298828 8.9143457 9.015625 9.5390625 C8.57476562 10.20164063 8.13390625 10.86421875 7.6796875 11.546875 C7.20789063 12.23265625 6.73609375 12.9184375 6.25 13.625 C5.79367188 14.31851563 5.33734375 15.01203125 4.8671875 15.7265625 C1.39174107 20.86941964 1.39174107 20.86941964 -2 22 C-4.26171875 21.22265625 -4.26171875 21.22265625 -6.6875 20.0625 C-7.49574219 19.68222656 -8.30398437 19.30195313 -9.13671875 18.91015625 C-9.75160156 18.60980469 -10.36648437 18.30945313 -11 18 C-9.62992438 14.34426939 -7.98982135 11.04532353 -6 7.6875 C-5.484375 6.80449219 -4.96875 5.92148438 -4.4375 5.01171875 C-3.7259375 4.01591797 -3.7259375 4.01591797 -3 3 C-2.34 3 -1.68 3 -1 3 C-0.67 2.01 -0.34 1.02 0 0 Z " fill="#303030" transform="translate(54,123)"/>
<path d="M0 0 C3 1 3 1 4.75 3.375 C6 6 6 6 5 9 C3.98046875 11.66796875 3.98046875 11.66796875 2 14 C-0.9105566 14.63501647 -3.72624335 14.4704013 -6.6875 14.3125 C-7.48478516 14.28994141 -8.28207031 14.26738281 -9.10351562 14.24414062 C-11.06981334 14.18526944 -13.03514491 14.09558755 -15 14 C-13.76171875 12.015625 -13.76171875 12.015625 -12 10 C-9.23857697 9.47200324 -6.83634455 9.81401019 -4 10 C-4.66 7.69 -5.32 5.38 -6 3 C-4 2 -2 1 0 0 Z " fill="#1B1B1B" transform="translate(155,45)"/>
<path d="M0 0 C7.37381351 -0.33687473 14.31043493 -0.50615362 21 3 C23.0625 5.1875 23.0625 5.1875 24 7 C21.69 7.66 19.38 8.32 17 9 C17 9.33 17 9.66 17 10 C13.04 9.67 9.08 9.34 5 9 C5 8.67 5 8.34 5 8 C6.65 7.67 8.3 7.34 10 7 C7.36 6.67 4.72 6.34 2 6 C2 5.67 2 5.34 2 5 C4.31 5 6.62 5 9 5 C9 4.01 9 3.02 9 2 C6.03 2 3.06 2 0 2 C0 1.34 0 0.68 0 0 Z " fill="#606060" transform="translate(16,40)"/>
<path d="M0 0 C7.94957992 -0.22428282 15.27111181 0.04596958 23 2 C23 2.33 23 2.66 23 3 C20.03 3 17.06 3 14 3 C14 3.99 14 4.98 14 6 C19.445 6.495 19.445 6.495 25 7 C25 7.33 25 7.66 25 8 C7.23583422 8.67364112 7.23583422 8.67364112 1.29296875 3.51953125 C0 2 0 2 0 0 Z " fill="#676767" transform="translate(4,55)"/>
<path d="M0 0 C2.93221231 0.62833121 5.45547513 1.38846758 8 3 C9.25 5.125 9.25 5.125 10 7 C9.34 7 8.68 7 8 7 C7.67 7.99 7.34 8.98 7 10 C4.9375 11.1875 4.9375 11.1875 3 12 C1.68 11.01 0.36 10.02 -1 9 C-1 11.97 -1 14.94 -1 18 C-1.66 18 -2.32 18 -3 18 C-3.08114106 16.22992286 -3.13925505 14.45877902 -3.1875 12.6875 C-3.22230469 11.70136719 -3.25710937 10.71523438 -3.29296875 9.69921875 C-2.94954537 6.53514468 -2.23102598 6.09048891 0 4 C0 2.68 0 1.36 0 0 Z " fill="#4F4F4F" transform="translate(99,44)"/>
<path d="M0 0 C1.34905313 0.04232195 2.69793464 0.0903437 4.04663086 0.14282227 C5.10991859 0.17823875 5.10991859 0.17823875 6.19468689 0.21437073 C8.46714482 0.29117497 10.73927617 0.37512626 13.01147461 0.45922852 C14.5485678 0.51243248 16.08567711 0.56517297 17.62280273 0.61743164 C21.39840164 0.74681256 25.17372263 0.88260542 28.94897461 1.02172852 C28.99169561 2.68784757 28.98961293 4.35555736 28.94897461 6.02172852 C27.94897461 7.02172852 27.94897461 7.02172852 24.13256836 7.11938477 C22.55050779 7.1127094 20.96846302 7.10074727 19.38647461 7.08422852 C18.58016602 7.0797168 17.77385742 7.07520508 16.94311523 7.07055664 C14.94503705 7.05873369 12.94699678 7.04079766 10.94897461 7.02172852 C10.61897461 6.36172852 10.28897461 5.70172852 9.94897461 5.02172852 C18.36397461 4.52672852 18.36397461 4.52672852 26.94897461 4.02172852 C27.27897461 3.36172852 27.60897461 2.70172852 27.94897461 2.02172852 C17.71897461 2.02172852 7.48897461 2.02172852 -3.05102539 2.02172852 C-3.05102539 8.62172852 -3.05102539 15.22172852 -3.05102539 22.02172852 C-3.38102539 22.02172852 -3.71102539 22.02172852 -4.05102539 22.02172852 C-4.07990353 18.54257911 -4.09778226 15.06346021 -4.11352539 11.58422852 C-4.1219043 10.59100586 -4.1302832 9.5977832 -4.13891602 8.57446289 C-4.14213867 7.63022461 -4.14536133 6.68598633 -4.14868164 5.71313477 C-4.15391846 4.83858643 -4.15915527 3.96403809 -4.16455078 3.06298828 C-3.97851562 -0.28204394 -3.41636944 0.02433039 0 0 Z " fill="#8C8C8C" transform="translate(49.051025390625,39.978271484375)"/>
<path d="M0 0 C3.61892886 3.24455691 4.65905151 5.31810302 7 10 C2.38 10 -2.24 10 -7 10 C-7 9.34 -7 8.68 -7 8 C-11.62 8 -16.24 8 -21 8 C-21 7.67 -21 7.34 -21 7 C-15.39 7 -9.78 7 -4 7 C-3.34 5.02 -2.68 3.04 -2 1 C-1.34 0.67 -0.68 0.34 0 0 Z " fill="#4B4B4B" transform="translate(161,52)"/>
<path d="M0 0 C3.32901247 2.21934164 3.75023244 3.34683329 5 7 C4.01 7.33 3.02 7.66 2 8 C2 9.98 2 11.96 2 14 C1.34 14 0.68 14 0 14 C0 14.66 0 15.32 0 16 C-1.8125 15.875 -1.8125 15.875 -4 15 C-5.75 11.9375 -5.75 11.9375 -7 9 C-5.68 9.33 -4.36 9.66 -3 10 C-1.87119943 6.68885166 -0.78697325 3.41021743 0 0 Z " fill="#363636" transform="translate(103,102)"/>
<path d="M0 0 C9.9 0 19.8 0 30 0 C29.67 0.99 29.34 1.98 29 3 C27.79601562 3.03738281 26.59203125 3.07476562 25.3515625 3.11328125 C23.77600989 3.17892928 22.20049046 3.24537701 20.625 3.3125 C19.8309375 3.33505859 19.036875 3.35761719 18.21875 3.38085938 C16.13784419 3.47785075 14.06558668 3.72994825 12 4 C11.01 5.485 11.01 5.485 10 7 C10 5.02 10 3.04 10 1 C6.7 1 3.4 1 0 1 C0 0.67 0 0.34 0 0 Z " fill="#111111" transform="translate(47,42)"/>
<path d="M0 0 C0.69738281 0.10892578 1.39476562 0.21785156 2.11328125 0.33007812 C3.82806295 0.60021497 5.53944631 0.89176995 7.25 1.1875 C7.25 1.8475 7.25 2.5075 7.25 3.1875 C5.93 2.8575 4.61 2.5275 3.25 2.1875 C3.25 4.1675 3.25 6.1475 3.25 8.1875 C2.92 7.5275 2.59 6.8675 2.25 6.1875 C-0.27733235 5.53194881 -0.27733235 5.53194881 -2.75 5.1875 C-3.08 4.1975 -3.41 3.2075 -3.75 2.1875 C-4.74 2.1875 -5.73 2.1875 -6.75 2.1875 C-6.75 2.8475 -6.75 3.5075 -6.75 4.1875 C-8.4 4.1875 -10.05 4.1875 -11.75 4.1875 C-11.75 2.1875 -11.75 2.1875 -10.234375 0.51171875 C-6.71329113 -1.36508539 -3.77066641 -0.66645994 0 0 Z " fill="#131313" transform="translate(25.75,48.8125)"/>
<path d="M0 0 C6.27 0 12.54 0 19 0 C18.67 1.32 18.34 2.64 18 4 C12.39 3.67 6.78 3.34 1 3 C0.67 2.01 0.34 1.02 0 0 Z " fill="#141414" transform="translate(59,58)"/>
<path d="M0 0 C0.99 0.99 1.98 1.98 3 3 C1.67667681 6.96996957 -1.0089399 8.76036395 -4.24609375 11.14453125 C-6 12 -6 12 -9 11 C-10.1875 8.9375 -10.1875 8.9375 -11 7 C-10.01 7 -9.02 7 -8 7 C-8 7.66 -8 8.32 -8 9 C-6.68 8.67 -5.36 8.34 -4 8 C-3.855625 7.38125 -3.71125 6.7625 -3.5625 6.125 C-3 4 -3 4 -2 2 C-1.34 2 -0.68 2 0 2 C0 1.34 0 0.68 0 0 Z " fill="#525252" transform="translate(145,123)"/>
<path d="M0 0 C2.125 0.9375 2.125 0.9375 4 2 C2.68775452 5.93673644 1.08089673 8.22719294 -2 11 C-3.125 8.6875 -3.125 8.6875 -4 6 C-3.34 5.01 -2.68 4.02 -2 3 C-2 2.34 -2 1.68 -2 1 C-1.34 0.67 -0.68 0.34 0 0 Z " fill="#474747" transform="translate(59,90)"/>
<path d="M0 0 C4.29 0 8.58 0 13 0 C13 0.66 13 1.32 13 2 C10 3 10 3 7 2 C7 3.32 7 4.64 7 6 C4.625 5.25 4.625 5.25 2 4 C1.34 2.68 0.68 1.36 0 0 Z " fill="#535353" transform="translate(4,55)"/>
<path d="M0 0 C2.27155498 0.08702126 4.54230743 0.19519522 6.8125 0.3125 C8.07707031 0.37050781 9.34164062 0.42851563 10.64453125 0.48828125 C14 1 14 1 15.94921875 2.54296875 C16.29597656 3.02378906 16.64273438 3.50460938 17 4 C16.67 4.66 16.34 5.32 16 6 C15.01 5.34 14.02 4.68 13 4 C10.39158121 3.7200908 10.39158121 3.7200908 7.5625 3.8125 C6.61503906 3.81894531 5.66757813 3.82539062 4.69140625 3.83203125 C2.3139406 3.98040719 0.27620963 4.32736122 -2 5 C-1.34 3.35 -0.68 1.7 0 0 Z " fill="#4D4D4D" transform="translate(140,40)"/>
<path d="M0 0 C2.97 0 5.94 0 9 0 C9.66 1.32 10.32 2.64 11 4 C6.71 4 2.42 4 -2 4 C-1.34 3.67 -0.68 3.34 0 3 C0 2.01 0 1.02 0 0 Z " fill="#101010" transform="translate(18,58)"/>
<path d="M0 0 C0.33 1.32 0.66 2.64 1 4 C-0.77007714 4.08114106 -2.54122098 4.13925505 -4.3125 4.1875 C-5.29863281 4.22230469 -6.28476563 4.25710937 -7.30078125 4.29296875 C-10 4 -10 4 -13 1 C-6.565 0.505 -6.565 0.505 0 0 Z " fill="#151515" transform="translate(73,49)"/>
<path d="M0 0 C0.99 0.33 1.98 0.66 3 1 C2.5206753 5.31392226 1.2542015 7.16569547 -2 10 C-2 9.34 -2 8.68 -2 8 C-2.66 8 -3.32 8 -4 8 C-4 3.16722534 -3.19658087 3.19658087 0 0 Z " fill="#383838" transform="translate(51,103)"/>
<path d="M0 0 C-0.33 0.99 -0.66 1.98 -1 3 C-5.62 3 -10.24 3 -15 3 C-15 2.34 -15 1.68 -15 1 C-13.43784452 0.83013455 -11.8752548 0.66426036 -10.3125 0.5 C-9.44238281 0.4071875 -8.57226562 0.314375 -7.67578125 0.21875 C-5.10276661 0.00840136 -2.58015636 -0.03719144 0 0 Z " fill="#171717" transform="translate(77,42)"/>
<path d="M0 0 C0.99 1.32 1.98 2.64 3 4 C2.34 4.61875 1.68 5.2375 1 5.875 C-1.2284549 7.75637427 -1.2284549 7.75637427 -1 10 C-2.65 10 -4.3 10 -6 10 C-4.34832443 6.4213696 -2.21713508 3.25179812 0 0 Z " fill="#464646" transform="translate(42,101)"/>
<path d="M0 0 C0.66 0.66 1.32 1.32 2 2 C2.99 2.33 3.98 2.66 5 3 C4.67 4.32 4.34 5.64 4 7 C2.02 6.34 0.04 5.68 -2 5 C-1.34 3.35 -0.68 1.7 0 0 Z " fill="#595959" transform="translate(45,136)"/>
<path d="M0 0 C0.66 0 1.32 0 2 0 C2.33 0.99 2.66 1.98 3 3 C1.68 3 0.36 3 -1 3 C-1.0825 3.78375 -1.165 4.5675 -1.25 5.375 C-2 8 -2 8 -4.0625 9.3125 C-5.0215625 9.6528125 -5.0215625 9.6528125 -6 10 C-4.63312778 6.01328937 -2.84804907 3.11505367 0 0 Z " fill="#666666" transform="translate(85,78)"/>
<path d="M0 0 C0.5534764 2.07553648 1 3.84365964 1 6 C-1.31 7.32 -3.62 8.64 -6 10 C-5.71125 9.443125 -5.4225 8.88625 -5.125 8.3125 C-3.94039559 5.97193593 -3.94039559 5.97193593 -3 3.3125 C-2 1 -2 1 0 0 Z " fill="#6A6A6A" transform="translate(49,91)"/>
<path d="M0 0 C0.99 1.32 1.98 2.64 3 4 C-1.08443115 5.53166168 -4.79455657 4.63081652 -9 4 C-9 3.67 -9 3.34 -9 3 C-7.02 3 -5.04 3 -3 3 C-3 2.34 -3 1.68 -3 1 C-2.01 0.67 -1.02 0.34 0 0 Z " fill="#5B5B5B" transform="translate(22,50)"/>
<path d="M0 0 C2.31 0 4.62 0 7 0 C7 0.99 7 1.98 7 3 C4.36 3.33 1.72 3.66 -1 4 C-0.67 2.68 -0.34 1.36 0 0 Z " fill="#131313" transform="translate(18,42)"/>
<path d="M0 0 C0.33 0 0.66 0 1 0 C1 1.98 1 3.96 1 6 C3.97 6.495 3.97 6.495 7 7 C7 7.66 7 8.32 7 9 C4.32142828 8.63803085 2.39019086 8.26012724 0.125 6.75 C-1 5 -1 5 -0.6875 2.3125 C-0.460625 1.549375 -0.23375 0.78625 0 0 Z " fill="#6B6B6B" transform="translate(6,44)"/>
<path d="M0 0 C0.66 0 1.32 0 2 0 C2.33 0.99 2.66 1.98 3 3 C1.0625 5.6875 1.0625 5.6875 -1 8 C-1 7.34 -1 6.68 -1 6 C-1.66 5.67 -2.32 5.34 -3 5 C-2.34 5 -1.68 5 -1 5 C-0.67 3.35 -0.34 1.7 0 0 Z " fill="#3C3C3C" transform="translate(62,126)"/>
<path d="M0 0 C0.99 0.66 1.98 1.32 3 2 C1.1875 4.5 1.1875 4.5 -1 7 C-1.99 7 -2.98 7 -4 7 C-2.79618552 4.50638429 -1.54571278 2.31856917 0 0 Z " fill="#444444" transform="translate(33,114)"/>
<path d="M0 0 C1.32 0 2.64 0 4 0 C4.6875 1.8125 4.6875 1.8125 5 4 C3.5625 5.75 3.5625 5.75 2 7 C1.34 6.67 0.68 6.34 0 6 C0.185625 5.38125 0.37125 4.7625 0.5625 4.125 C1.23686176 1.95839822 1.23686176 1.95839822 0 0 Z " fill="#646464" transform="translate(56,77)"/>
<path d="M0 0 C0.66 1.32 1.32 2.64 2 4 C0.68 5.32 -0.64 6.64 -2 8 C-2.6875 5.6875 -2.6875 5.6875 -3 3 C-1.5625 1.1875 -1.5625 1.1875 0 0 Z " fill="#535353" transform="translate(39,123)"/>
<path d="M0 0 C0.66 0 1.32 0 2 0 C1.67 1.98 1.34 3.96 1 6 C0.01 5.67 -0.98 5.34 -2 5 C-2 5.66 -2 6.32 -2 7 C-2.66 6.67 -3.32 6.34 -4 6 C-2.7260411 3.96166576 -1.38938077 1.96147874 0 0 Z " fill="#4D4D4D" transform="translate(69,101)"/>
<path d="M0 0 C2.125 0.9375 2.125 0.9375 4 2 C3.67 2.99 3.34 3.98 3 5 C0.525 4.01 0.525 4.01 -2 3 C-2 2.34 -2 1.68 -2 1 C-1.34 0.67 -0.68 0.34 0 0 Z " fill="#383838" transform="translate(59,90)"/>
<path d="M0 0 C0.66 0.33 1.32 0.66 2 1 C-1.625 5.875 -1.625 5.875 -5 7 C-3.70700306 4.11562221 -2.34058637 2.12780579 0 0 Z " fill="#696969" transform="translate(74,8)"/>
<path d="" fill="#FFFFFF" transform="translate(0,0)"/>
<path d="" fill="#FFFFFF" transform="translate(0,0)"/>
<path d="" fill="#FFFFFF" transform="translate(0,0)"/>
<path d="" fill="#FFFFFF" transform="translate(0,0)"/>
<path d="" fill="#FFFFFF" transform="translate(0,0)"/>
<path d="" fill="#FFFFFF" transform="translate(0,0)"/>
<path d="" fill="#FFFFFF" transform="translate(0,0)"/>
<path d="" fill="#FFFFFF" transform="translate(0,0)"/>
<path d="" fill="#FFFFFF" transform="translate(0,0)"/>
<path d="" fill="#FFFFFF" transform="translate(0,0)"/>
<path d="" fill="#FFFFFF" transform="translate(0,0)"/>
<path d="" fill="#FFFFFF" transform="translate(0,0)"/>
<path d="" fill="#FFFFFF" transform="translate(0,0)"/>
<path d="" fill="#FFFFFF" transform="translate(0,0)"/>
<path d="" fill="#FFFFFF" transform="translate(0,0)"/>
<path d="" fill="#FFFFFF" transform="translate(0,0)"/>
<path d="" fill="#FFFFFF" transform="translate(0,0)"/>
<path d="" fill="#FFFFFF" transform="translate(0,0)"/>
<path d="" fill="#FFFFFF" transform="translate(0,0)"/>
<path d="" fill="#FFFFFF" transform="translate(0,0)"/>
<path d="" fill="#FFFFFF" transform="translate(0,0)"/>
<path d="" fill="#FFFFFF" transform="translate(0,0)"/>
<path d="" fill="#FFFFFF" transform="translate(0,0)"/>
<path d="" fill="#FFFFFF" transform="translate(0,0)"/>
<path d="" fill="#FFFFFF" transform="translate(0,0)"/>
<path d="" fill="#FFFFFF" transform="translate(0,0)"/>
<path d="" fill="#FFFFFF" transform="translate(0,0)"/>
<path d="" fill="#FFFFFF" transform="translate(0,0)"/>
<path d="" fill="#FFFFFF" transform="translate(0,0)"/>
<path d="" fill="#FFFFFF" transform="translate(0,0)"/>
<path d="" fill="#FFFFFF" transform="translate(0,0)"/>
<path d="" fill="#FFFFFF" transform="translate(0,0)"/>
<path d="" fill="#FFFFFF" transform="translate(0,0)"/>
<path d="" fill="#FFFFFF" transform="translate(0,0)"/>
<path d="" fill="#FFFFFF" transform="translate(0,0)"/>
<path d="" fill="#FFFFFF" transform="translate(0,0)"/>
<path d="" fill="#FFFFFF" transform="translate(0,0)"/>
</svg>
